<svg xmlns="http://www.w3.org/2000/svg" width="124" height="124" viewBox="0 0 124 124">
  <g fill="#22CC76" transform="translate(11 7)">
    <path d="M0.5,55 C0.5,85.3761 25.1646,110 55.5909,110 C60.8555,110 65.9467,109.2638 70.7685,107.8871 C44.1854,105.15 23.4545,82.7211 23.4545,55.4583 C23.4545,27.3983 45.4148,4.4604 73.1144,2.8417 C67.6092,0.9988 61.7178,0 55.5909,0 C25.1646,0 0.5,24.6239 0.5,55 Z"/>
    <path d="M30.8,55 C30.8,77.782 49.2006,96.25 71.8996,96.25 C75.8272,96.25 79.6254,95.6978 83.2226,94.6653 C63.3907,92.6125 47.9248,75.7908 47.9248,55.3438 C47.9248,34.2987 64.3079,17.0953 84.9727,15.8812 C80.8656,14.4991 76.4704,13.75 71.8996,13.75 C49.2006,13.75 30.8,32.218 30.8,55 Z"/>
    <path d="M57.4273,55 C57.4273,42.8496 67.2931,33 79.4636,33 C91.6341,33 101.5,42.8496 101.5,55 C101.5,67.1504 91.6341,77 79.4636,77 C67.2931,77 57.4273,67.1504 57.4273,55 Z"/>
  </g>
</svg>
