<?xml version="1.0" encoding="UTF-8" ?>
<!DOCTYPE svg PUBLIC "-//W3C//DTD SVG 1.1//EN" "http://www.w3.org/Graphics/SVG/1.1/DTD/svg11.dtd">
<svg width="805pt" height="325pt" viewBox="0 0 805 325" version="1.1" xmlns="http://www.w3.org/2000/svg">
    <g id="#0056c0ff">
        <path fill="#0056c0" opacity="1.00"
            d=" M 12.26 10.02 C 39.87 10.04 67.48 10.04 95.09 10.03 C 97.84 9.68 99.86 11.81 102.01 13.12 C 101.99 20.74 102.01 28.37 102.00 35.99 C 100.45 37.11 98.91 38.23 97.38 39.37 C 69.01 39.30 40.65 39.33 12.28 39.36 C 10.79 38.33 9.31 37.29 7.85 36.22 C 7.86 28.68 7.90 21.15 7.83 13.62 C 9.31 12.42 10.79 11.23 12.26 10.02 M 12.36 15.11 C 12.36 21.41 12.36 27.70 12.36 34.00 C 40.67 34.00 68.98 34.00 97.29 34.00 C 97.30 27.70 97.27 21.40 97.31 15.11 C 68.99 15.12 40.68 15.11 12.36 15.11 Z" />
        <path fill="#0056c0" opacity="1.00"
            d=" M 180.13 10.03 C 207.75 10.03 235.37 10.04 262.99 10.03 C 265.70 9.73 267.67 11.87 269.78 13.18 C 269.71 20.77 269.77 28.37 269.75 35.96 C 268.23 37.08 266.72 38.21 265.22 39.34 C 237.47 39.32 209.72 39.35 181.97 39.34 C 179.43 39.57 177.60 37.52 175.59 36.31 C 175.64 28.69 175.62 21.06 175.60 13.43 C 177.12 12.32 178.63 11.18 180.13 10.03 M 180.08 15.11 C 180.08 21.41 180.08 27.70 180.08 34.00 C 208.39 34.00 236.70 34.00 265.01 34.00 C 265.01 27.70 265.01 21.41 265.01 15.11 C 236.70 15.11 208.39 15.11 180.08 15.11 Z" />
        <path fill="#0056c0" opacity="1.00"
            d=" M 362.34 12.47 C 363.15 11.71 363.97 10.94 364.78 10.17 C 376.38 10.15 387.97 10.19 399.57 10.15 C 400.61 11.29 401.67 12.42 402.74 13.54 C 402.76 20.57 402.71 27.60 402.79 34.62 C 401.52 35.68 400.26 36.75 399.00 37.82 C 387.79 37.79 376.57 37.71 365.36 37.71 C 364.35 37.03 363.34 36.35 362.33 35.68 C 362.39 27.94 362.38 20.20 362.34 12.47 M 367.36 14.87 C 367.38 20.96 367.35 27.05 367.39 33.14 C 377.26 33.08 387.13 33.13 397.00 33.11 C 397.00 27.04 397.00 20.96 397.00 14.89 C 387.12 14.88 377.24 14.91 367.36 14.87 Z" />
        <path fill="#0056c0" opacity="1.00"
            d=" M 419.57 16.58 C 423.96 13.14 429.20 10.19 434.93 10.21 C 473.30 9.95 511.67 10.18 550.04 10.23 C 565.43 10.09 580.37 22.28 582.04 37.82 C 552.70 37.81 523.36 37.80 494.02 37.79 C 475.66 37.60 457.30 38.67 438.94 37.96 C 436.74 40.09 437.30 43.22 437.25 45.98 C 437.28 66.53 437.17 87.08 437.18 107.62 C 436.05 108.72 434.93 109.82 433.82 110.92 C 426.27 110.94 418.72 111.01 411.17 111.00 C 410.07 109.97 408.97 108.93 407.87 107.90 C 407.94 84.60 407.93 61.31 408.02 38.02 C 407.84 29.41 413.23 21.89 419.57 16.58 M 413.07 38.94 C 413.01 61.41 413.07 83.88 413.04 106.36 C 419.36 106.38 425.68 106.44 432.00 106.48 C 432.00 84.62 431.96 62.75 432.15 40.89 C 431.94 37.05 435.12 33.34 439.05 33.39 C 484.52 32.97 530.00 33.17 575.47 33.08 C 571.44 23.25 561.96 14.84 550.96 14.69 C 512.92 14.83 474.87 14.78 436.83 15.07 C 424.30 15.30 413.29 26.44 413.07 38.94 Z" />
        <path fill="#0056c0" opacity="1.00"
            d=" M 625.44 10.63 C 637.24 8.25 650.02 9.53 660.60 15.49 C 673.02 21.34 682.03 32.97 686.36 45.81 C 689.61 56.61 689.27 68.62 684.90 79.06 C 680.38 89.35 673.08 98.72 663.09 104.16 C 651.31 111.17 636.79 112.83 623.54 109.68 C 609.97 106.26 597.88 97.12 591.16 84.81 C 583.94 72.28 582.86 56.55 587.89 43.04 C 593.84 26.75 608.65 14.46 625.44 10.63 M 626.43 15.72 C 610.03 19.21 596.08 32.00 591.09 47.99 C 587.43 59.76 588.79 73.11 595.18 83.70 C 600.89 94.13 610.85 101.92 622.09 105.60 C 634.21 109.52 647.94 108.28 659.06 102.02 C 669.23 96.91 676.97 87.69 681.17 77.20 C 684.88 67.37 685.04 56.26 681.53 46.35 C 677.44 35.26 669.35 25.53 658.67 20.29 C 648.99 14.79 637.25 13.49 626.43 15.72 Z" />
        <path fill="#0056c0" opacity="1.00"
            d=" M 769.08 14.40 C 770.29 12.98 771.50 11.55 772.73 10.13 C 779.80 10.23 786.87 10.25 793.94 10.28 C 795.09 11.55 796.25 12.82 797.41 14.09 C 797.42 45.55 797.39 77.00 797.44 108.46 C 796.58 109.30 795.73 110.15 794.90 111.00 C 790.71 111.00 786.52 111.00 782.34 110.99 C 770.06 97.04 757.80 83.07 745.43 69.20 C 745.47 63.71 745.48 58.22 745.58 52.74 C 753.37 52.51 761.16 52.56 768.96 52.49 C 769.05 39.79 768.92 27.10 769.08 14.40 M 774.00 15.00 C 774.04 26.34 774.05 37.67 774.12 49.01 C 774.09 51.55 774.33 54.12 773.78 56.63 C 765.87 57.08 757.92 56.84 750.00 57.01 C 750.00 60.73 750.00 64.46 750.00 68.18 C 761.37 81.05 772.84 93.84 784.37 106.57 C 786.99 106.51 789.62 106.48 792.25 106.47 C 792.25 75.94 792.25 45.42 792.25 14.89 C 786.16 15.01 780.08 15.01 774.00 15.00 Z" />
        <path fill="#0056c0" opacity="1.00"
            d=" M 106.16 13.43 C 107.23 12.49 108.29 11.55 109.35 10.61 C 116.89 10.64 124.42 10.61 131.95 10.63 C 133.05 11.56 134.15 12.50 135.26 13.43 C 135.35 36.19 135.48 58.94 135.47 81.69 C 136.85 82.47 138.22 83.45 139.89 83.17 C 149.52 83.08 159.14 83.12 168.76 83.07 C 169.68 83.93 170.60 84.79 171.53 85.66 C 171.51 93.31 171.46 100.96 171.54 108.61 C 170.67 109.40 169.80 110.19 168.94 110.99 C 156.97 110.96 145.00 110.99 133.03 110.94 C 129.74 110.99 126.50 110.14 123.64 108.53 C 116.74 104.67 110.60 98.87 107.70 91.39 C 105.90 86.81 106.24 81.81 106.21 77.00 C 106.20 55.81 106.22 34.62 106.16 13.43 M 111.28 82.07 C 111.12 94.79 122.57 105.80 135.07 106.20 C 145.59 106.39 156.12 106.17 166.65 106.29 C 166.66 100.16 166.65 94.04 166.66 87.91 C 156.77 87.85 146.89 87.85 137.00 87.76 C 133.01 87.88 130.20 83.78 130.25 80.09 C 130.10 58.56 130.03 37.03 130.00 15.50 C 123.77 15.50 117.54 15.51 111.31 15.50 C 111.24 37.69 111.25 59.88 111.28 82.07 Z" />
        <path fill="#0056c0" opacity="1.00"
            d=" M 284.53 29.55 C 292.66 19.82 303.89 11.43 317.00 10.86 C 331.66 10.30 346.34 10.69 361.00 10.57 C 361.00 19.90 361.00 29.22 361.00 38.55 C 348.03 38.52 335.06 38.38 322.09 38.52 C 308.68 38.82 298.72 53.88 302.48 66.45 C 305.46 75.21 313.21 83.37 322.95 83.58 C 335.63 83.56 348.32 83.49 361.00 83.52 C 361.00 92.68 361.00 101.84 361.00 111.00 C 347.35 110.97 333.70 111.08 320.05 110.90 C 308.85 110.72 298.30 105.31 290.20 97.82 C 281.25 88.79 274.30 76.94 273.87 63.97 C 272.78 51.68 277.15 39.28 284.53 29.55 M 279.88 48.80 C 276.56 62.28 279.53 77.18 287.68 88.40 C 295.90 99.44 309.42 105.48 322.87 106.82 C 333.98 106.91 345.09 106.81 356.20 106.85 C 356.13 100.62 356.10 94.40 356.06 88.17 C 344.08 87.95 332.10 88.18 320.13 87.81 C 308.20 87.00 299.12 76.21 297.62 64.81 C 296.17 57.27 299.42 49.72 303.76 43.71 C 307.90 38.47 313.91 33.89 320.89 33.96 C 332.66 33.76 344.44 33.85 356.21 33.77 C 356.12 27.58 356.10 21.40 356.05 15.22 C 345.39 15.16 334.72 15.22 324.06 15.17 C 303.94 14.45 285.30 29.84 279.88 48.80 Z" />
        <path fill="#0056c0" opacity="1.00"
            d=" M 691.41 13.47 C 692.30 12.63 693.19 11.78 694.09 10.92 C 698.27 10.92 702.45 10.92 706.64 10.92 C 718.69 24.64 730.99 38.15 743.03 51.89 C 742.99 57.71 742.90 63.53 742.79 69.34 C 735.24 69.49 727.69 69.50 720.14 69.56 C 720.03 81.73 720.11 93.91 719.97 106.08 C 720.05 108.18 718.08 109.46 717.01 111.02 C 709.39 110.98 701.78 111.01 694.16 111.00 C 693.25 110.08 692.34 109.16 691.44 108.25 C 691.39 76.65 691.45 45.06 691.41 13.47 M 696.82 15.27 C 696.87 45.54 696.83 75.80 696.84 106.07 C 702.89 106.06 708.94 106.07 715.00 106.06 C 715.00 92.52 714.99 78.98 715.00 65.44 C 722.94 65.31 730.89 65.16 738.83 65.02 C 738.88 61.26 738.91 57.49 738.97 53.73 C 731.05 44.77 723.02 35.92 715.05 27.01 C 711.46 23.29 708.42 19.03 704.53 15.61 C 701.98 15.16 699.38 15.36 696.82 15.27 Z" />
        <path fill="#0056c0" opacity="1.00"
            d=" M 628.34 35.54 C 643.73 30.26 662.12 41.69 663.90 57.90 C 665.89 70.52 657.10 83.20 645.07 86.82 C 633.55 90.71 619.89 86.04 613.31 75.79 C 608.41 68.37 607.64 58.44 611.39 50.37 C 614.55 43.29 621.01 37.90 628.34 35.54 M 631.48 39.63 C 621.72 41.83 613.81 50.94 613.85 61.09 C 613.55 71.49 621.76 81.16 631.94 82.89 C 636.99 83.18 642.41 83.53 646.97 80.90 C 655.33 76.81 660.74 67.22 659.01 57.92 C 657.24 45.48 643.61 36.59 631.48 39.63 Z" />
        <path fill="#0056c0" opacity="1.00"
            d=" M 511.36 46.39 C 534.72 46.55 558.08 46.26 581.43 46.72 C 580.30 54.33 576.97 61.89 571.00 66.91 C 565.04 71.83 557.30 73.91 549.75 74.64 C 560.07 84.86 570.23 95.24 580.62 105.40 C 580.62 107.26 580.64 109.13 580.66 110.99 C 570.07 111.01 559.48 110.99 548.89 111.00 C 535.14 97.11 521.66 82.95 507.96 69.01 C 507.96 62.68 507.96 56.36 507.96 50.03 C 509.09 48.82 510.23 47.61 511.36 46.39 M 513.14 51.25 C 513.10 56.58 513.15 61.90 513.10 67.23 C 524.47 78.75 535.71 90.41 547.07 101.95 C 548.63 103.44 549.98 105.29 551.96 106.29 C 559.20 106.56 566.46 106.06 573.72 106.22 C 561.76 94.13 549.73 82.10 537.78 70.00 C 544.20 69.79 550.79 70.75 557.06 68.92 C 565.53 66.40 572.68 59.79 575.44 51.32 C 554.67 51.14 533.91 51.27 513.14 51.25 Z" />
        <path fill="#0056c0" opacity="1.00"
            d=" M 7.85 50.20 C 9.36 49.02 10.86 47.83 12.35 46.64 C 38.98 46.73 65.61 46.52 92.23 46.79 C 91.21 56.63 85.65 66.13 76.69 70.69 C 65.80 76.45 53.08 74.39 41.27 74.85 C 41.27 77.93 41.27 81.01 41.27 84.10 C 60.01 84.13 78.74 84.14 97.48 84.23 C 98.96 85.85 100.47 87.45 101.98 89.04 C 101.97 95.20 102.04 101.36 101.95 107.53 C 100.42 108.79 98.91 110.08 97.40 111.37 C 69.05 111.31 40.70 111.35 12.35 111.36 C 10.85 110.20 9.36 109.06 7.86 107.91 C 7.86 88.68 7.88 69.44 7.85 50.20 M 12.37 51.34 C 12.36 69.76 12.37 88.18 12.36 106.60 C 40.67 106.59 68.98 106.60 97.29 106.59 C 97.29 100.73 97.29 94.88 97.29 89.02 C 77.11 89.02 56.94 89.02 36.76 89.02 C 36.75 82.73 36.78 76.45 36.74 70.17 C 45.49 70.09 54.26 70.64 63.00 70.04 C 73.69 69.45 83.20 61.56 86.40 51.44 C 61.72 51.22 37.04 51.38 12.37 51.34 Z" />
        <path fill="#0056c0" opacity="1.00"
            d=" M 175.60 50.22 C 177.11 49.01 178.62 47.82 180.15 46.63 C 206.77 46.73 233.39 46.54 260.01 46.78 C 258.94 56.26 253.86 65.56 245.31 70.21 C 234.30 76.57 221.12 74.35 209.00 74.87 C 209.00 77.94 209.00 81.01 209.00 84.08 C 227.04 84.12 245.07 84.19 263.11 84.18 C 266.24 83.81 267.68 87.24 269.74 88.97 C 269.73 95.16 269.73 101.34 269.75 107.53 C 268.23 108.79 266.71 110.07 265.20 111.35 C 236.84 111.35 208.48 111.32 180.13 111.36 C 178.60 110.21 177.10 109.04 175.60 107.87 C 175.62 88.65 175.63 69.43 175.60 50.22 M 180.08 51.33 C 180.08 69.75 180.08 88.18 180.09 106.60 C 208.39 106.60 236.70 106.60 265.00 106.60 C 265.01 100.74 265.00 94.88 265.01 89.02 C 244.83 89.02 224.65 89.03 204.48 89.01 C 204.46 82.73 204.52 76.44 204.43 70.15 C 213.28 70.10 222.16 70.66 230.99 70.01 C 241.59 69.34 251.03 61.50 254.12 51.42 C 229.44 51.24 204.76 51.37 180.08 51.33 Z" />
        <path fill="#0056c0" opacity="1.00"
            d=" M 473.75 50.19 C 474.71 49.01 475.68 47.83 476.66 46.65 C 484.24 46.67 491.82 46.67 499.40 46.65 C 500.54 47.91 501.68 49.16 502.85 50.41 C 502.80 69.34 502.82 88.28 502.83 107.22 C 501.79 108.52 500.77 109.83 499.75 111.14 C 492.16 111.00 484.57 111.01 476.99 110.91 C 475.91 109.89 474.82 108.88 473.75 107.87 C 473.78 88.64 473.75 69.42 473.75 50.19 M 478.93 51.28 C 478.95 69.54 478.93 87.80 478.94 106.06 C 485.20 106.07 491.46 106.06 497.72 106.07 C 497.72 87.81 497.72 69.54 497.72 51.28 C 491.46 51.28 485.19 51.28 478.93 51.28 Z" />
        <path fill="#0056c0" opacity="1.00"
            d=" M 309.31 140.15 C 314.26 140.19 319.21 140.17 324.16 140.16 C 325.81 141.97 328.04 143.47 328.83 145.90 C 341.37 183.11 353.84 220.35 366.39 257.55 C 365.11 258.95 363.84 260.37 362.58 261.79 C 349.98 261.73 337.38 261.82 324.77 261.80 C 322.51 254.65 320.29 247.48 317.94 240.36 C 316.35 240.36 314.78 240.37 313.20 240.39 C 305.62 261.58 298.10 282.81 290.55 304.02 C 277.27 304.03 263.99 304.00 250.72 304.03 C 249.19 302.48 247.66 300.92 246.12 299.39 C 265.38 248.26 284.64 197.14 303.88 146.01 C 304.79 143.38 307.41 141.99 309.31 140.15 M 310.19 147.22 C 291.78 196.86 273.45 246.54 254.97 296.17 C 264.92 296.21 274.87 296.27 284.83 296.30 C 292.67 275.28 300.68 254.32 308.39 233.26 C 313.17 233.29 317.95 233.29 322.73 233.23 C 325.09 240.34 327.58 247.41 330.02 254.49 C 339.36 254.38 348.70 254.25 358.04 254.17 C 346.30 218.60 334.68 182.99 322.91 147.42 C 318.67 147.37 314.43 147.29 310.19 147.22 Z" />
        <path fill="#0056c0" opacity="1.00"
            d=" M 152.32 145.54 C 162.05 141.68 172.66 141.23 183.01 141.35 C 202.45 141.31 221.89 141.25 241.33 141.25 C 241.23 156.31 241.32 171.37 241.28 186.44 C 219.96 186.41 198.65 186.29 177.34 186.44 C 160.38 187.67 146.85 203.58 145.55 220.07 C 144.35 231.37 150.16 242.26 158.20 249.82 C 163.97 254.93 170.93 259.80 178.98 259.67 C 199.87 259.62 220.75 259.66 241.64 259.61 C 241.61 274.41 241.63 289.22 241.63 304.02 C 220.07 304.00 198.52 304.06 176.96 304.00 C 157.14 304.06 138.37 294.27 124.62 280.43 C 111.76 267.04 102.37 249.73 100.60 231.06 C 96.35 195.33 118.99 158.66 152.32 145.54 M 112.05 197.00 C 101.09 227.50 112.31 265.28 139.59 283.38 C 150.76 290.71 163.71 295.28 176.94 296.94 C 195.96 297.03 214.98 297.03 234.00 297.08 C 234.01 287.05 233.81 277.03 233.73 267.01 C 216.16 266.96 198.60 266.72 181.03 266.72 C 172.81 267.06 164.53 264.65 157.61 260.25 C 144.70 251.37 137.57 235.41 138.28 219.91 C 139.58 209.15 144.87 199.11 152.20 191.21 C 158.14 184.87 165.93 179.36 174.95 179.26 C 194.63 178.90 214.32 179.07 234.00 178.88 C 234.01 168.92 233.81 158.96 233.73 148.99 C 213.13 149.07 192.52 148.60 171.93 149.03 C 145.13 152.30 121.77 172.12 112.05 197.00 Z" />
        <path fill="#0056c0" opacity="1.00"
            d=" M 390.85 219.35 C 390.29 178.41 427.07 141.14 467.99 141.15 C 498.73 141.07 529.48 141.04 560.23 141.00 C 560.23 155.85 560.22 170.70 560.23 185.54 C 539.04 185.60 517.84 185.26 496.66 185.61 C 487.48 186.48 478.22 185.79 469.01 185.97 C 461.03 185.37 453.79 189.95 447.97 194.92 C 441.04 201.12 436.14 209.89 436.06 219.34 C 420.99 219.35 405.92 219.36 390.85 219.35 M 443.07 154.23 C 428.46 160.40 416.45 171.92 408.72 185.67 C 404.02 193.98 400.39 203.12 399.88 212.74 C 409.97 212.77 420.06 212.74 430.15 212.76 C 433.13 193.85 450.90 178.80 469.99 178.60 C 497.47 178.23 524.96 178.27 552.45 178.19 C 552.53 168.12 552.66 158.06 552.77 148.00 C 526.50 148.00 500.23 148.00 473.96 148.00 C 463.38 147.95 452.77 149.99 443.07 154.23 Z" />
        <path fill="#0056c0" opacity="1.00"
            d=" M 587.36 142.68 C 595.29 140.06 603.75 141.03 611.96 140.83 C 611.93 153.85 611.84 166.86 611.86 179.88 C 609.77 181.91 607.67 183.92 605.59 185.96 C 592.74 186.03 579.89 185.97 567.04 185.89 C 567.09 175.18 568.08 163.93 573.48 154.43 C 576.69 149.18 581.62 144.92 587.36 142.68 M 586.76 150.74 C 577.64 156.91 575.25 168.73 574.64 179.01 C 584.69 179.22 594.74 179.16 604.79 179.03 C 604.79 168.35 604.79 157.66 604.79 146.98 C 598.63 146.87 591.91 146.83 586.76 150.74 Z" />
        <path fill="#0056c0" opacity="1.00"
            d=" M 662.86 140.62 C 677.84 140.58 692.83 140.67 707.81 140.57 C 707.77 195.05 707.80 249.52 707.80 304.00 C 692.81 304.00 677.82 304.00 662.84 304.00 C 662.84 284.26 662.83 264.53 662.84 244.79 C 645.90 244.83 628.96 244.80 612.02 244.81 C 612.02 264.54 612.02 284.27 612.02 304.00 C 597.01 304.00 582.01 304.00 567.00 304.00 C 567.00 269.34 567.00 234.68 567.00 200.02 C 598.95 200.03 630.89 200.02 662.84 200.03 C 662.85 180.22 662.81 160.42 662.86 140.62 M 670.18 148.18 C 670.17 167.85 670.18 187.52 670.17 207.19 C 638.19 207.20 606.21 207.19 574.23 207.19 C 574.23 237.05 574.22 266.91 574.23 296.77 C 584.30 296.77 594.37 296.77 604.45 296.78 C 604.42 276.90 604.52 257.03 604.40 237.16 C 626.33 237.23 648.26 237.18 670.19 237.19 C 670.16 256.93 670.19 276.68 670.17 296.43 C 680.25 296.44 690.32 296.43 700.40 296.43 C 700.40 247.01 700.40 197.59 700.40 148.18 C 690.32 148.18 680.25 148.18 670.18 148.18 Z" />
        <path fill="#0056c0" opacity="1.00"
            d=" M 515.09 225.78 C 530.12 225.79 545.16 225.77 560.20 225.79 C 560.62 260.48 534.57 292.38 501.56 301.50 C 493.91 303.72 485.89 304.07 477.97 303.99 C 448.92 304.01 419.86 304.00 390.81 304.00 C 390.82 289.20 390.77 274.40 390.83 259.60 C 421.18 259.64 451.53 259.69 481.88 259.63 C 489.18 259.57 495.94 256.07 501.52 251.59 C 509.25 245.30 514.95 235.95 515.09 225.78 M 521.01 232.38 C 517.82 251.23 500.22 266.43 481.05 266.51 C 453.57 266.91 426.08 266.92 398.59 267.01 C 398.53 277.06 398.45 287.12 398.37 297.18 C 418.91 297.15 439.46 297.27 460.00 297.28 C 471.52 297.22 483.18 297.78 494.52 295.32 C 508.70 292.04 522.11 284.77 531.94 273.93 C 541.96 262.27 550.25 248.08 551.13 232.39 C 541.09 232.37 531.05 232.38 521.01 232.38 Z" />
        <path fill="#0056c0" opacity="1.00"
            d=" M 306.10 264.34 C 324.73 264.54 343.39 264.21 362.04 264.36 C 364.74 264.45 367.25 265.58 369.82 266.33 C 375.19 278.87 380.51 291.44 385.80 304.02 C 374.86 304.00 363.93 304.06 353.00 304.00 C 340.77 303.60 327.98 300.66 318.43 292.62 C 310.12 285.78 306.49 274.79 306.10 264.34 M 313.12 271.10 C 316.65 284.09 328.35 293.50 341.15 296.48 C 352.44 298.94 364.09 297.46 375.54 297.87 C 371.94 288.92 368.29 280.00 364.64 271.07 C 347.47 271.05 330.30 271.06 313.12 271.10 Z" />
    </g>
</svg>
