<svg xmlns="http://www.w3.org/2000/svg" width="123" height="123">
  <g fill="none">
    <path fill="#5EBD6D" d="M61.124 122.97C27.42 122.97 0 95.552 0 61.846 0 28.138 27.42.717 61.124.717c33.705 0 61.125 27.42 61.125 61.126 0 33.706-27.42 61.128-61.125 61.128z"/>
    <path fill="#FFF" d="M48.52 75.121a9.911 9.911 0 004.324-3.563 9.75 9.75 0 001.691-5.505v-1.061c0-1.306-.269-2.633-.782-3.833a9.887 9.887 0 00-3.56-4.324 9.78 9.78 0 00-5.498-1.692h-15.74c-.386 0-.746-.073-1.1-.22a2.9 2.9 0 01-1.272-1.053 2.831 2.831 0 01-.488-1.579v-1.063a2.83 2.83 0 01.224-1.097 2.952 2.952 0 011.05-1.277 2.82 2.82 0 011.584-.484h23.85v-6.99H28.954a9.895 9.895 0 00-3.834.78 9.889 9.889 0 00-4.322 3.561 9.714 9.714 0 00-1.69 5.507v1.06c0 1.307.27 2.633.777 3.832a9.873 9.873 0 003.567 4.326 9.735 9.735 0 005.493 1.69h15.74c.386.002.744.075 1.099.223.507.21.96.585 1.273 1.05a2.8 2.8 0 01.488 1.585v1.06c0 .387-.072.745-.223 1.098-.213.51-.589.961-1.05 1.273a2.83 2.83 0 01-1.585.488H15.404v6.985h29.283a9.804 9.804 0 003.832-.777zm29.726 24.137h-6.988V75.896H67.11a9.737 9.737 0 01-5.497-1.688 9.83 9.83 0 01-3.563-4.326 9.797 9.797 0 01-.779-3.83v-41.62h6.989v41.62c0 .567.162 1.1.488 1.582.312.465.761.841 1.269 1.055.353.149.715.22 1.1.222h4.14V58.358c0-1.973.582-3.875 1.69-5.505a9.892 9.892 0 014.327-3.565 9.726 9.726 0 013.834-.779h15.903c1.967 0 3.87.586 5.495 1.69a9.878 9.878 0 013.567 4.324 9.94 9.94 0 01.777 3.835v7.694a9.695 9.695 0 01-1.69 5.504 9.926 9.926 0 01-4.322 3.563 9.772 9.772 0 01-3.835.777h-16.86v-6.985h16.86a2.82 2.82 0 001.585-.488 2.944 2.944 0 001.05-1.273c.15-.356.22-.713.223-1.098v-7.698a2.853 2.853 0 00-.488-1.583 2.923 2.923 0 00-1.275-1.05c-.35-.15-.71-.221-1.097-.223H81.098a2.828 2.828 0 00-1.577.486c-.463.314-.84.766-1.056 1.275a2.843 2.843 0 00-.219 1.099v40.9z"/>
  </g>
</svg>
