<?xml version="1.0" standalone="no"?>
<!DOCTYPE svg PUBLIC "-//W3C//DTD SVG 1.1//EN" "http://www.w3.org/Graphics/SVG/1.1/DTD/svg11.dtd">
<svg id="bch_logo_vector_green_white.fw-Page%201" viewBox="0 0 2000 1587" style="background-color:#ffffff00" version="1.1"
	xmlns="http://www.w3.org/2000/svg" xmlns:xlink="http://www.w3.org/1999/xlink" xml:space="preserve"
	x="0px" y="0px" width="2000px" height="1587px"
>
	<g id="Layer%201">
		<path id="Ellipse" d="M 382.5 617.5 C 382.5 276.46 658.96 0 1000 0 C 1341.0399 0 1617.5 276.46 1617.5 617.5 C 1617.5 958.54 1341.0399 1235 1000 1235 C 658.96 1235 382.5 958.54 382.5 617.5 Z" fill="#ffffff"/>
		<path d="M 1432.7949 1235 L 2000 1235 L 2000 0 L 1432.7949 0 C 1627.0419 136.3944 1754 362.1184 1754 617.5 C 1754 872.8816 1627.0417 1098.6056 1432.7949 1235 ZM 0 0 L 0 1235 L 567.205 1235 C 372.9581 1098.6056 246 872.8816 246 617.5 C 246 362.1184 372.9581 136.3944 567.205 0 L 0 0 Z" fill="#4cca47"/>
		<path d="M 1012.5 344 C 1034.5 341 1048.5 336 1069.5 336 C 1135.5 336 1211.5 377 1211.5 459 C 1211.5 488 1199.5 515 1174.5 545 C 1175.5 546 1176.5 546 1177.5 546 C 1255.5 559 1305.5 617 1305.5 682 C 1305.5 746 1245.5 819 1166.5 835 C 1159.5 836 1151.5 839 1142.5 841 C 1142.5 842 1141.5 843 1141.5 843 L 1169.5 952 L 1104.5 969 L 1075.5 859 L 1023.5 872 L 1051.5 983 L 986.5 1000 L 958.5 891 C 957.5 891 956.5 890 955.5 890 L 819.5 925 L 819.5 842 C 840.5 831 884.5 837 884.5 807 C 884.5 805 818.5 548 805.5 502 C 805.5 500 803.5 496 800.5 494 C 792.5 484 782.5 481 774.5 481 L 711.5 496 L 694.5 427 L 829.5 391 L 801.5 282 L 866.5 265 L 895.5 375 L 947.5 362 L 919.5 252 L 985.5 235 L 1012.5 344 ZM 382.5 617.5 C 382.5 958.54 658.96 1235 1000 1235 C 1341.0399 1235 1617.5 958.54 1617.5 617.5 C 1617.5 276.46 1341.0399 0 1000 0 C 658.96 0 382.5 276.46 382.5 617.5 ZM 1090.5 490 C 1090.5 446 1046.5 428 1014.5 428 C 988.5 428 932.5 445 915.5 450 L 949.5 582 C 979.5 574 1010.5 568 1038.5 557 C 1074.5 543 1090.5 515 1090.5 490 ZM 1172.5 688 C 1172.5 639 1120.5 624 1086.5 624 C 1049.5 624 1002.5 642 966.5 650 L 1003.5 794 C 1003.5 794 1085.5 771 1088.5 771 C 1127.5 764 1172.5 725 1172.5 688 Z" fill="#4cca47"/>
		<g>
			<path d="M 185.1212 1562.7228 C 206.1011 1547.8796 216.5989 1525.7566 216.5989 1496.3378 C 216.5989 1481.7777 213.4496 1468.6958 207.1666 1457.0918 C 200.8679 1445.4878 189.0853 1436.3209 171.7875 1429.5597 C 192.9711 1416.6665 203.5629 1399.0718 203.5629 1376.7756 C 203.5629 1361.9956 200.5859 1349.574 194.6319 1339.4951 C 188.678 1329.432 180.4051 1321.3029 169.829 1315.1235 C 159.2372 1308.9442 146.6085 1304.573 131.9273 1302.0258 C 117.2461 1299.4785 101.186 1298.1892 83.7315 1298.1892 C 70.7582 1298.1892 56.735 1298.8025 41.6621 1300.0133 C 26.5891 1301.2239 12.6913 1303.0321 0 1305.4535 L 0 1576.9055 C 16.107 1580.4117 31.603 1582.6288 46.5193 1583.5723 C 61.4355 1584.5156 76.4144 1584.9873 91.4717 1584.9873 C 132.9144 1584.9873 164.1257 1577.5658 185.1212 1562.7228 L 185.1212 1562.7228 ZM 98.7261 1459.1986 C 116.306 1459.1986 129.8121 1461.9818 139.2601 1467.548 C 148.6924 1473.114 153.4242 1482.391 153.4242 1495.4102 C 153.4242 1510.0646 147.7836 1520.1118 136.5024 1525.5365 C 125.2213 1530.9611 110.399 1533.6655 92.0357 1533.6655 C 85.7371 1533.6655 79.9555 1533.5398 74.7222 1533.2567 C 69.4734 1532.9895 64.6162 1532.5807 60.1664 1532.0303 L 60.1664 1459.1986 L 98.7261 1459.1986 L 98.7261 1459.1986 ZM 60.1664 1350.7059 C 64.9139 1350.1714 70.3351 1349.8413 76.4144 1349.7155 C 82.4937 1349.5897 88.1657 1349.511 93.4616 1349.511 C 109.835 1349.511 122.2443 1351.7753 130.7052 1356.2878 C 139.1661 1360.8164 143.3965 1368.6466 143.3965 1379.8103 C 143.3965 1390.7068 139.2914 1398.6157 131.1125 1403.5216 C 122.918 1408.443 109.3022 1410.8959 90.2809 1410.8959 L 60.1664 1410.8959 L 60.1664 1350.7059 L 60.1664 1350.7059 Z" fill="#ffffff"/>
			<path d="M 300.7863 1368.631 L 241.6227 1368.631 L 241.6227 1580.962 L 300.7863 1580.962 L 300.7863 1368.631 L 300.7863 1368.631 ZM 295.8194 1281.5695 C 288.8 1275.2172 280.5428 1272.0253 271.0164 1272.0253 C 261.4745 1272.0253 253.2016 1275.2172 246.1821 1281.5695 C 239.1627 1287.9218 235.6687 1296.6483 235.6687 1307.7491 C 235.6687 1318.8501 239.1627 1327.5924 246.1821 1333.9447 C 253.2016 1340.297 261.4745 1343.4733 271.0164 1343.4733 C 280.5428 1343.4733 288.8 1340.297 295.8194 1333.9447 C 302.8388 1327.5924 306.3485 1318.8501 306.3485 1307.7491 C 306.3485 1296.6483 302.8388 1287.9218 295.8194 1281.5695 L 295.8194 1281.5695 Z" fill="#ffffff"/>
			<path d="M 332.8294 1494.3567 C 332.8294 1508.0834 334.0829 1520.5992 336.6055 1531.9045 C 339.1124 1543.2098 343.5465 1552.8326 349.9079 1560.7729 C 356.2692 1568.7134 364.7458 1574.9086 375.3376 1579.3427 C 385.9294 1583.7609 399.3258 1585.9937 415.4955 1585.9937 C 428.2025 1585.9937 438.9353 1584.9087 447.6782 1582.7703 C 456.4212 1580.6162 464.365 1578.0533 471.5254 1575.0972 L 463.1899 1527.8164 C 457.6119 1529.9705 451.4543 1531.653 444.6856 1532.8636 C 437.9169 1534.0743 431.3675 1534.6719 425.0062 1534.6719 C 411.7508 1534.6719 402.9295 1530.9297 398.558 1523.4296 C 394.1709 1515.9293 391.993 1505.8821 391.993 1493.2874 L 391.993 1418.9463 L 463.1899 1418.9463 L 463.1899 1368.631 L 391.993 1368.631 L 391.993 1306.2397 L 332.8294 1315.9254 L 332.8294 1494.3567 L 332.8294 1494.3567 Z" fill="#ffffff"/>
			<path d="M 485.3306 1519.1527 C 489.4201 1532.8008 495.8911 1544.6093 504.7437 1554.5936 C 513.5963 1564.5939 524.8931 1572.4871 538.6342 1578.2891 C 552.3754 1584.0911 568.7644 1587 587.8015 1587 C 600.2108 1587 611.5703 1585.915 621.8801 1583.7766 C 632.1898 1581.6067 640.7761 1579.0594 647.6545 1576.1035 L 639.3032 1527.2032 C 632.4249 1530.1593 624.8884 1532.3134 616.6938 1533.6655 C 608.4836 1535.0178 600.8218 1535.6782 593.6927 1535.6782 C 573.5903 1535.6782 559.5045 1530.3793 551.4509 1519.7501 C 543.3818 1509.1211 539.355 1494.1365 539.355 1474.7965 C 539.355 1456.5571 543.6324 1441.84 552.1874 1430.6761 C 560.7422 1419.5125 573.7 1413.9148 591.0604 1413.9148 C 599.208 1413.9148 606.5878 1414.7324 613.1685 1416.3363 C 619.7491 1417.9558 625.7971 1419.8425 631.3281 1421.9967 L 643.6434 1374.3071 C 634.9318 1370.5336 625.9695 1367.6404 616.7565 1365.6277 C 607.5279 1363.615 597.3905 1362.593 586.3286 1362.593 C 569.4539 1362.593 554.4279 1365.5648 541.2509 1371.5083 C 528.0739 1377.4519 516.8709 1385.4867 507.658 1395.6125 C 498.4294 1405.7385 491.3786 1417.6256 486.5058 1431.2579 C 481.6172 1444.906 479.1887 1459.4188 479.1887 1474.7965 C 479.1887 1490.7402 481.2256 1505.5204 485.3306 1519.1527 L 485.3306 1519.1527 Z" fill="#ffffff"/>
			<path d="M 852.676 1428.6163 C 847.662 1414.8425 840.6583 1403.0969 831.696 1393.3798 C 822.7338 1383.6626 811.9853 1376.0996 799.4507 1370.6907 C 786.916 1365.2976 773.1435 1362.593 758.1176 1362.593 C 743.3267 1362.593 729.6796 1365.2976 717.1449 1370.6907 C 704.6103 1376.0996 693.7991 1383.6626 684.7115 1393.3798 C 675.6082 1403.0969 668.4791 1414.8425 663.3399 1428.6163 C 658.2007 1442.3903 655.6311 1457.6577 655.6311 1474.3877 C 655.6311 1491.1333 658.138 1506.4637 663.1519 1520.3634 C 668.1658 1534.2788 675.1539 1546.1658 684.1161 1556.0245 C 693.0784 1565.8832 703.8268 1573.5092 716.3615 1578.9023 C 728.8962 1584.2954 742.8096 1587 758.1176 1587 C 773.6762 1587 787.715 1584.2954 800.2498 1578.9023 C 812.7844 1573.5092 823.5329 1565.8832 832.4951 1556.0245 C 841.4574 1546.1658 848.3201 1534.2788 853.0676 1520.3634 C 857.8152 1506.4637 860.1968 1491.1333 860.1968 1474.3877 C 860.1968 1457.6577 857.6898 1442.3903 852.676 1428.6163 L 852.676 1428.6163 ZM 789.1566 1519.1371 C 781.9022 1530.1749 771.561 1535.6782 758.1176 1535.6782 C 744.6586 1535.6782 734.2391 1530.1749 726.8593 1519.1371 C 719.4796 1508.099 715.7975 1493.193 715.7975 1474.3877 C 715.7975 1455.598 719.4796 1440.8179 726.8593 1430.0629 C 734.2391 1419.308 744.6586 1413.9148 758.1176 1413.9148 C 771.561 1413.9148 781.9022 1419.308 789.1566 1430.0629 C 796.3954 1440.8179 800.0304 1455.598 800.0304 1474.3877 C 800.0304 1493.193 796.3954 1508.099 789.1566 1519.1371 L 789.1566 1519.1371 Z" fill="#ffffff"/>
			<path d="M 944.3841 1368.631 L 885.2205 1368.631 L 885.2205 1580.962 L 944.3841 1580.962 L 944.3841 1368.631 L 944.3841 1368.631 ZM 939.4173 1281.5695 C 932.3978 1275.2172 924.1406 1272.0253 914.6143 1272.0253 C 905.0723 1272.0253 896.7994 1275.2172 889.78 1281.5695 C 882.7606 1287.9218 879.2666 1296.6483 879.2666 1307.7491 C 879.2666 1318.8501 882.7606 1327.5924 889.78 1333.9447 C 896.7994 1340.297 905.0723 1343.4733 914.6143 1343.4733 C 924.1406 1343.4733 932.3978 1340.297 939.4173 1333.9447 C 946.4366 1327.5924 949.9464 1318.8501 949.9464 1307.7491 C 949.9464 1296.6483 946.4366 1287.9218 939.4173 1281.5695 L 939.4173 1281.5695 Z" fill="#ffffff"/>
			<path d="M 978.4328 1580.962 L 1037.5963 1580.962 L 1037.5963 1416.9338 C 1041.2471 1416.399 1045.4304 1415.9431 1050.131 1415.5344 C 1054.8315 1415.1256 1059.2813 1414.9211 1063.4803 1414.9211 C 1077.0648 1414.9211 1086.3405 1418.9622 1091.3074 1427.0441 C 1096.2742 1435.126 1098.7655 1448.8684 1098.7655 1468.2555 L 1098.7655 1580.962 L 1157.9291 1580.962 L 1157.9291 1460.9755 C 1157.9291 1446.4313 1156.4719 1433.239 1153.5732 1421.3835 C 1150.6747 1409.528 1145.8018 1399.292 1138.9547 1390.6753 C 1132.092 1382.0588 1122.8007 1375.3921 1111.0808 1370.675 C 1099.3452 1365.9579 1084.6483 1363.5994 1066.9901 1363.5994 C 1049.5983 1363.5994 1032.9899 1364.8887 1017.1806 1367.4359 C 1001.3556 1369.9988 988.4448 1372.7505 978.4328 1375.7065 L 978.4328 1580.962 L 978.4328 1580.962 Z" fill="#ffffff"/>
			<path d="M 1375.6262 1580.5532 C 1391.5139 1576.245 1403.8448 1571.4022 1412.5878 1566.0247 L 1395.5094 1515.9136 C 1392.0623 1517.5332 1388.2079 1519.2786 1383.9774 1521.1653 C 1379.7313 1523.0521 1374.8271 1524.7345 1369.2491 1526.2126 C 1363.6713 1527.6906 1357.3101 1528.98 1350.1495 1530.0492 C 1342.989 1531.1183 1334.9042 1531.653 1325.8949 1531.653 C 1311.5741 1531.653 1299.3685 1529.2944 1289.2937 1524.5616 C 1279.2032 1519.8446 1271.0558 1513.4293 1264.8198 1505.3159 C 1258.5837 1497.2184 1254.087 1487.564 1251.298 1476.3531 C 1248.5092 1465.1422 1247.1302 1453.0508 1247.1302 1440.0789 C 1247.1302 1423.8678 1249.2455 1410.094 1253.4916 1398.7416 C 1257.7222 1387.389 1263.3627 1378.1437 1270.3821 1370.9894 C 1277.4015 1363.8352 1285.502 1358.6306 1294.6523 1355.3916 C 1303.8026 1352.1526 1313.141 1350.5173 1322.6986 1350.5173 C 1337.0038 1350.5173 1349.7892 1352.137 1361.0703 1355.3602 C 1372.3358 1358.5992 1382.2069 1362.4988 1390.6992 1367.0585 L 1408.5767 1316.5544 C 1406.4458 1315.218 1403.0145 1313.3311 1398.2512 1310.9097 C 1393.488 1308.4883 1387.5186 1306.1455 1380.3738 1303.8499 C 1373.2133 1301.5698 1364.8621 1299.5573 1355.3358 1297.7961 C 1345.8093 1296.0509 1335.2175 1295.1704 1323.576 1295.1704 C 1303.4423 1295.1704 1284.7656 1298.4094 1267.5618 1304.8561 C 1250.3423 1311.3185 1235.5044 1320.7998 1223.0637 1333.3157 C 1210.6232 1345.8317 1200.8147 1361.1779 1193.67 1379.3386 C 1186.5253 1397.4995 1182.9529 1418.1444 1182.9529 1441.2896 C 1182.9529 1487.8472 1194.6727 1523.7755 1218.1125 1549.059 C 1241.5524 1574.3583 1275.6466 1587 1320.411 1587 C 1341.3282 1587 1359.7385 1584.8458 1375.6262 1580.5532 L 1375.6262 1580.5532 Z" fill="#4cca46"/>
			<path d="M 1489.203 1533.1781 C 1483.0923 1529.4989 1480.037 1522.8949 1480.037 1513.335 C 1480.037 1508.4293 1481.0712 1504.3412 1483.155 1501.0706 C 1485.2233 1497.8002 1488.0906 1495.2057 1491.7256 1493.2874 C 1495.3606 1491.3849 1499.5911 1490.0955 1504.4012 1489.4037 C 1509.2113 1488.7277 1514.3506 1488.3817 1519.8188 1488.3817 C 1523.7046 1488.3817 1527.9977 1488.6647 1532.6826 1489.1992 C 1537.3517 1489.7339 1540.8613 1490.2686 1543.2117 1490.8031 L 1543.2117 1537.0776 C 1540.078 1537.6122 1535.9259 1538.021 1530.724 1538.2882 C 1525.5221 1538.5714 1520.0696 1538.6971 1514.3506 1538.6971 C 1503.6962 1538.6971 1495.3136 1536.8574 1489.203 1533.1781 L 1489.203 1533.1781 ZM 1488.9679 1363.5994 C 1482.2148 1364.2755 1475.7909 1365.0774 1469.7115 1366.0208 C 1463.6166 1366.9642 1457.9917 1368.0491 1452.8368 1369.2599 C 1447.6663 1370.4706 1443.373 1371.6184 1439.9261 1372.6875 L 1447.4625 1421.3835 C 1454.5759 1418.6947 1463.0211 1416.6035 1472.7825 1415.1256 C 1482.5282 1413.6475 1492.4305 1412.9084 1502.4584 1412.9084 C 1517.4843 1412.9084 1528.0291 1415.9589 1534.1084 1422.0282 C 1540.172 1428.1132 1543.2117 1436.1793 1543.2117 1446.2111 L 1543.2117 1451.7615 C 1539.5139 1450.6923 1534.7195 1449.8118 1528.7969 1449.1356 C 1522.8741 1448.4753 1516.1055 1448.1294 1508.4907 1448.1294 C 1497.1625 1448.1294 1486.2417 1449.2772 1475.7281 1451.5728 C 1465.1991 1453.8684 1455.8608 1457.5792 1447.7133 1462.7051 C 1439.55 1467.8309 1433.032 1474.7179 1428.1748 1483.3501 C 1423.302 1491.998 1420.8734 1502.5171 1420.8734 1514.9388 C 1420.8734 1527.895 1422.9729 1538.8386 1427.2035 1547.7382 C 1431.4338 1556.6534 1437.5132 1563.8706 1445.4413 1569.4053 C 1453.3695 1574.9399 1462.8019 1578.918 1473.7697 1581.3395 C 1484.7375 1583.7609 1496.9431 1584.9873 1510.4178 1584.9873 C 1531.8208 1584.9873 1550.0431 1583.698 1565.1003 1581.1665 C 1580.1576 1578.6193 1591.9088 1576.3866 1600.3698 1574.4998 L 1600.3698 1449.3716 C 1600.3698 1436.1951 1598.9126 1424.2137 1595.9983 1413.4587 C 1593.0839 1402.7039 1588.1172 1393.5529 1581.0977 1386.0055 C 1574.0782 1378.4739 1564.7556 1372.6875 1553.114 1368.6466 C 1541.4568 1364.6213 1526.9009 1362.593 1509.4307 1362.593 C 1502.5367 1362.593 1495.7211 1362.939 1488.9679 1363.5994 L 1488.9679 1363.5994 Z" fill="#4cca46"/>
			<path d="M 1668.994 1534.2631 C 1658.4335 1531.9832 1648.1237 1528.8226 1638.0959 1524.7817 L 1628.1622 1574.0909 C 1632.9255 1576.245 1641.4803 1578.9337 1653.7957 1582.1571 C 1666.111 1585.3805 1681.5599 1587 1700.1112 1587 C 1728.4708 1587 1750.3909 1581.5911 1765.9026 1570.7733 C 1781.3984 1559.9554 1789.1543 1543.996 1789.1543 1522.8949 C 1789.1543 1513.9796 1788.1359 1506.1337 1786.1146 1499.3724 C 1784.0934 1492.6113 1780.5837 1486.4634 1775.6012 1480.913 C 1770.6029 1475.3783 1763.8656 1470.2367 1755.4048 1465.4882 C 1746.9282 1460.7396 1736.2111 1455.9282 1723.2533 1451.0382 C 1716.8921 1448.6011 1711.6743 1446.3683 1707.5693 1444.3242 C 1703.4642 1442.2959 1700.2208 1440.4089 1697.8392 1438.6481 C 1695.4578 1436.887 1693.8596 1435.0631 1693.0762 1433.1763 C 1692.2771 1431.2893 1691.8854 1429.1195 1691.8854 1426.6981 C 1691.8854 1416.1633 1701.1923 1410.8959 1719.822 1410.8959 C 1729.9124 1410.8959 1739.0314 1411.8394 1747.1476 1413.7262 C 1755.2637 1415.6129 1762.7688 1417.7513 1769.6943 1420.1729 L 1780.0197 1373.4895 C 1773.1256 1370.8008 1763.85 1368.3164 1752.1927 1366.0208 C 1740.5355 1363.7408 1728.3456 1362.593 1715.6228 1362.593 C 1690.1775 1362.593 1670.1534 1368.3794 1655.5818 1379.9362 C 1641.0104 1391.493 1633.7246 1407.2167 1633.7246 1427.1068 C 1633.7246 1437.3271 1635.1659 1446.0538 1638.049 1453.318 C 1640.9319 1460.5824 1645.0057 1466.8246 1650.2545 1472.0605 C 1655.5035 1477.3123 1661.8962 1481.8407 1669.4482 1485.6615 C 1676.9849 1489.4823 1685.3829 1493.1616 1694.6587 1496.6995 C 1706.5665 1501.3536 1715.4192 1505.489 1721.2478 1509.1367 C 1727.0763 1512.7847 1729.9907 1517.0458 1729.9907 1521.8887 C 1729.9907 1528.1152 1727.7345 1532.2976 1723.2533 1534.4517 C 1718.7566 1536.6216 1711.0946 1537.6908 1700.2836 1537.6908 C 1689.9739 1537.6908 1679.5543 1536.5587 1668.994 1534.2631 L 1668.994 1534.2631 Z" fill="#4cca46"/>
			<path d="M 1879.6672 1580.962 L 1879.6672 1419.3552 C 1883.318 1418.2859 1887.4388 1417.2797 1892.0139 1416.3363 C 1896.5891 1415.3928 1901.4933 1414.9211 1906.7266 1414.9211 C 1919.7938 1414.9211 1928.7404 1418.9622 1933.582 1427.0441 C 1938.4078 1435.126 1940.8363 1448.8684 1940.8363 1468.2555 L 1940.8363 1580.962 L 2000 1580.962 L 2000 1460.9755 C 2000 1446.4313 1998.6055 1433.239 1995.8479 1421.3835 C 1993.0903 1409.528 1988.3584 1399.292 1981.6523 1390.6753 C 1974.9463 1382.0588 1965.9998 1375.3921 1954.8282 1370.675 C 1943.6411 1365.9579 1929.6335 1363.5994 1912.8057 1363.5994 C 1907.0084 1363.5994 1901.0232 1364.2125 1894.8499 1365.4233 C 1888.6765 1366.634 1883.6156 1367.9076 1879.6672 1369.244 L 1879.6672 1268 L 1820.5037 1277.6858 L 1820.5037 1580.962 L 1879.6672 1580.962 L 1879.6672 1580.962 Z" fill="#4cca46"/>
		</g>
	</g>
</svg>
