<?xml version="1.0" standalone="no"?>
<!DOCTYPE svg PUBLIC "-//W3C//DTD SVG 1.1//EN" "http://www.w3.org/Graphics/SVG/1.1/DTD/svg11.dtd">
<svg id="bch_logo_vector_green_bare.fw-Page%201" viewBox="0 0 2000 1235" style="background-color:#ffffff00" version="1.1"
	xmlns="http://www.w3.org/2000/svg" xmlns:xlink="http://www.w3.org/1999/xlink" xml:space="preserve"
	x="0px" y="0px" width="2000px" height="1235px"
>
	<g id="Layer%201">
		<path id="Ellipse" d="M 382.5 617.5 C 382.5 276.46 658.96 0 1000 0 C 1341.0399 0 1617.5 276.46 1617.5 617.5 C 1617.5 958.54 1341.0399 1235 1000 1235 C 658.96 1235 382.5 958.54 382.5 617.5 Z" fill="#ffffff"/>
		<path d="M 1432.7949 1235 L 2000 1235 L 2000 0 L 1432.7949 0 C 1627.0419 136.3944 1754 362.1184 1754 617.5 C 1754 872.8816 1627.0417 1098.6056 1432.7949 1235 ZM 0 0 L 0 1235 L 567.205 1235 C 372.9581 1098.6056 246 872.8816 246 617.5 C 246 362.1184 372.9581 136.3944 567.205 0 L 0 0 Z" fill="#4cca47"/>
		<path d="M 1012.5 344 C 1034.5 341 1048.5 336 1069.5 336 C 1135.5 336 1211.5 377 1211.5 459 C 1211.5 488 1199.5 515 1174.5 545 C 1175.5 546 1176.5 546 1177.5 546 C 1255.5 559 1305.5 617 1305.5 682 C 1305.5 746 1245.5 819 1166.5 835 C 1159.5 836 1151.5 839 1142.5 841 C 1142.5 842 1141.5 843 1141.5 843 L 1169.5 952 L 1104.5 969 L 1075.5 859 L 1023.5 872 L 1051.5 983 L 986.5 1000 L 958.5 891 C 957.5 891 956.5 890 955.5 890 L 819.5 925 L 819.5 842 C 840.5 831 884.5 837 884.5 807 C 884.5 805 818.5 548 805.5 502 C 805.5 500 803.5 496 800.5 494 C 792.5 484 782.5 481 774.5 481 L 711.5 496 L 694.5 427 L 829.5 391 L 801.5 282 L 866.5 265 L 895.5 375 L 947.5 362 L 919.5 252 L 985.5 235 L 1012.5 344 ZM 382.5 617.5 C 382.5 958.54 658.96 1235 1000 1235 C 1341.0399 1235 1617.5 958.54 1617.5 617.5 C 1617.5 276.46 1341.0399 0 1000 0 C 658.96 0 382.5 276.46 382.5 617.5 ZM 1090.5 490 C 1090.5 446 1046.5 428 1014.5 428 C 988.5 428 932.5 445 915.5 450 L 949.5 582 C 979.5 574 1010.5 568 1038.5 557 C 1074.5 543 1090.5 515 1090.5 490 ZM 1172.5 688 C 1172.5 639 1120.5 624 1086.5 624 C 1049.5 624 1002.5 642 966.5 650 L 1003.5 794 C 1003.5 794 1085.5 771 1088.5 771 C 1127.5 764 1172.5 725 1172.5 688 Z" fill="#4cca47"/>
	</g>
</svg>
