<svg xmlns="http://www.w3.org/2000/svg" width="200" height="124">
  <g fill="none" fill-rule="evenodd">
    <path fill="#568E32" d="M92.659 89.675c4.746 0 9.178-.006 13.611.006.733.002.669-.484.667-.952-.024-5.567-.014-11.135-.086-16.7-.071-5.427-.319-10.855.493-16.252.651-4.33 3.08-8.556 8.974-9.226 3.078-.35 6.458 1.148 7.1 4.565.458 2.435.747 4.935.782 7.411.145 9.998.173 19.999.208 29.998.003.88.25 1.144 1.134 1.123 3.9-.09 7.803-.117 11.704-.16 1.324-.014 1.332-.004 1.323-1.377-.058-8.466-.082-16.932-.193-25.397-.059-4.557-.17-9.118-.443-13.666-.18-2.99-1.369-5.691-3.363-7.952-4.46-5.054-10.275-6.074-16.57-5.213-5.168.707-9.165 3.574-12.5 7.45-.164.19-.24.454-.358.685-.284-.276-.35-.308-.38-.361-4.009-6.878-11.293-8.745-18.106-7.59-4.577.776-8.317 3.074-11.478 6.398l-1.128 1.186-.32-.11c0-1.687.002-3.374-.002-5.062-.003-1.486-.006-1.5-1.54-1.484-3.601.039-7.202.091-10.803.144-.191.002-.38.054-.47.067V89.75c.32.077.414.12.51.12 4.302.002 8.605-.014 12.908.011.826.005.794-.475.791-1.04-.027-6.734-.106-13.468-.047-20.2.037-4.29.087-8.594.485-12.858.483-5.18 3.568-8.318 8.72-9.029 3.657-.505 6.963.668 7.745 5.283.365 2.153.526 4.362.552 6.548.083 7.133.064 14.268.079 21.402.006 3.19 0 6.382 0 9.69m6.802 33.457c-35.094-.45-62.174-28.923-61.128-63.31C39.372 25.65 67.673-.956 102.15.3c33.583 1.223 60.76 29.286 59.069 64.419-1.59 33.016-28.696 58.44-61.759 58.414"/>
    <path fill="#568E32" d="M55.913.26C35.66 15.799 24.471 36.045 24.463 61.708c-.008 25.65 11.197 45.859 31.43 61.42H53.87c-9.806 0-19.612.008-29.418-.005-7.703-.01-15.405-.06-23.107-.05-.96 0-1.327-.194-1.325-1.26C.063 87.91.07 54.007.087 20.103c.003-6.3.033-12.6 0-18.9C.082.3.445.148 1.21.151c8.705.03 17.41.044 26.114.052 9.171.008 18.342.003 27.513.007.353 0 .705.032 1.076.05m87.817 122.918c20.371-15.602 31.509-35.898 31.504-61.489C175.23 36.1 164.06 15.818 143.736.256h5.72c16.278.008 32.555.024 48.832.007.94 0 1.25.233 1.248 1.222-.036 29.168-.04 58.335-.051 87.503-.004 11.033-.025 22.067-.004 33.101.002.884-.256 1.147-1.129 1.145-15.44-.034-30.882-.043-46.324-.055-2.725-.003-5.45 0-8.298 0"/>
    <path fill="#FEFEFE" d="M92.659 89.675c0-3.307.005-6.498-.001-9.69-.015-7.133.004-14.268-.08-21.4-.025-2.187-.186-4.396-.55-6.549-.783-4.615-4.09-5.788-7.745-5.283-5.153.711-8.238 3.85-8.721 9.029-.398 4.264-.448 8.569-.485 12.857-.059 6.733.02 13.467.047 20.201.003.565.035 1.045-.791 1.04-4.303-.025-8.606-.009-12.909-.011-.095 0-.19-.043-.509-.12V37.206c.09-.013.279-.065.47-.067 3.6-.053 7.202-.105 10.803-.144 1.534-.016 1.537-.002 1.54 1.484.004 1.688.001 3.375.001 5.062l.32.11 1.129-1.186c3.16-3.324 6.901-5.622 11.478-6.398 6.813-1.155 14.097.712 18.105 7.59.03.053.097.085.381.36.117-.23.194-.495.358-.685 3.335-3.875 7.332-6.742 12.5-7.45 6.295-.86 12.11.16 16.57 5.214 1.994 2.26 3.184 4.962 3.363 7.952.274 4.548.384 9.109.443 13.666.11 8.465.135 16.931.193 25.397.009 1.373 0 1.363-1.323 1.377-3.901.043-7.803.07-11.704.16-.884.02-1.13-.243-1.134-1.123-.035-10-.063-20-.208-29.998-.035-2.476-.324-4.976-.782-7.411-.642-3.417-4.022-4.915-7.1-4.565-5.894.67-8.323 4.895-8.974 9.226-.812 5.397-.564 10.825-.493 16.251.072 5.566.062 11.134.086 16.7.002.469.066.955-.667.953-4.433-.012-8.865-.006-13.611-.006"/>
  </g>
</svg>
