<?xml version="1.0" encoding="UTF-8"?>
<svg width="351" height="80" xmlns="http://www.w3.org/2000/svg">
  <g fill-rule="nonzero" fill="none">
    <path d="M144 38.9c5.9 3.7 8.1 9.4 7.1 17.4-2 16.1-15.3 22.1-30.6 22.1H91.6c-1 0-1.5-.7-1.4-1.7l9.2-74.2c.1-1 .8-1.7 1.8-1.7h27.9C146.6.8 156 6.3 154 22.7c-.9 7.3-4.2 12.2-9.9 15.2-.5.3-.5.8-.1 1zm-12.8 15.2c.4-4.1-1.9-6.2-6.8-6.2h-9.9c-.3 0-.7.2-.7.7L112.4 60c0 .4.1.7.6.7h9.7c5-.1 7.9-2.3 8.5-6.6zm-13.8-34.7l-1.3 10.9c0 .4.1.7.6.7h8.7c5.1 0 8.1-2.1 8.5-6.1.6-4-1.9-6.1-7.1-6.1h-8.6c-.3-.1-.7.1-.8.6zm39.1 31.3l2.8-22.4c2.1-17 15.3-28.3 33.1-28.3s28.4 10.6 26.4 26.7c0 .7-.8 1.1-1.7 1.2L199.9 29c-1.1.1-1.5-.2-1.5-.6l.1-.7c.8-6-2.5-10-8.2-10-5.8 0-10 4-10.7 10l-2.9 23.8c-.8 5.9 2.5 9.9 8.2 9.9 5.8 0 10-4 10.6-9.9.1-.8.8-1.3 1.8-1.2l16.9.9c1 .1 1.6.2 1.6.6l-.1.6c-2 16.2-15.2 26.9-33 26.9-17.9 0-28.3-11.4-26.2-28.6zM267.7.9h17.1c.9 0 1.4.7 1.3 1.7L277 76.8c-.1 1-.9 1.7-1.8 1.7h-17.1c-.9 0-1.4-.7-1.3-1.7l3.4-28c0-.4-.1-.7-.6-.7H243c-.4 0-.7.2-.7.7l-3.4 28c-.1 1-.9 1.7-1.9 1.7h-16.9c-1 0-1.5-.7-1.4-1.7L228 2.5c.1-1 .8-1.7 1.8-1.7h17c1 0 1.5.7 1.4 1.7l-3.3 27c-.1.4.1.7.6.7H262c.4 0 .7-.2.8-.7l3.3-27c0-.9.7-1.6 1.6-1.6z" fill="#000"/>
    <path d="M285.2 76.8l9.2-74.2c.1-1 .8-1.7 1.8-1.7h27.6c17.6 0 28.2 10 26.4 24.9l-3.3 27.7c-1.9 14.9-15 24.9-32.6 24.9h-27.6c-1.1 0-1.6-.7-1.5-1.6zM308 60.6h9.2c4.8 0 8.7-4.2 9.7-10.6l2.5-20.6c.8-6.4-2.1-10.6-7.3-10.6h-9c-.4 0-.7.2-.8.7l-5 40.5c.1.4.2.6.7.6zM23.1 26.7c-2.6 0-3.8-1.1-2.8-2.5 1.1-1.4 4.1-2.5 6.6-2.5h52.7c2.6 0 4.5 1.1 4.3 2.5-.2 1.4-2.5 2.5-5.1 2.5H23.1zM3.2 38.9c-2.6 0-3.8-1.1-2.8-2.5S4.4 34 7 34h71c2.6 0 4.6 1.1 4.4 2.5-.2 1.4-2.4 2.5-5 2.5l-74.2-.1zm32.1 12.2c-2.6 0-4.1-1.1-3.3-2.5.8-1.4 3.5-2.5 6.1-2.5h38.6c2.6 0 4.6 1.1 4.4 2.5-.2 1.4-2.5 2.5-5 2.5H35.3z" fill="#24E6AA"/>
  </g>
</svg>
