<?xml version="1.0" encoding="UTF-8"?>
<svg width="194" height="194" xmlns="http://www.w3.org/2000/svg">
  <g fill-rule="nonzero" fill="none">
    <path d="M186.578 16c4.082 0 7.422 3.34 7.422 7.422v147.156c0 4.082-3.34 7.422-7.422 7.422H39.422C35.34 178 32 174.66 32 170.578V153H21.222c-2.806-.009-5.093-2.204-5.217-4.958l-.005-.218V129H2.978a2.987 2.987 0 01-2.972-2.803L0 126.022V66.978A2.987 2.987 0 012.978 64H16V45.176c.009-2.782 2.224-5.048 5.002-5.17l.22-.006H32V23.422c0-4 3.207-7.288 7.178-7.418l.244-.004z" fill="#FFF"/>
    <path d="M44.372 171.5h136.256c3.78 0 6.872-3.093 6.872-6.872V28.372c0-3.78-3.093-6.872-6.872-6.872H44.372c-3.78 0-6.872 3.093-6.872 6.872v136.256c0 3.78 3.093 6.872 6.872 6.872z" fill="#A31C37"/>
    <path d="M27.31 149h95.38a4.825 4.825 0 004.81-4.81V48.81a4.825 4.825 0 00-4.81-4.81H27.31a4.825 4.825 0 00-4.81 4.81v95.38a4.825 4.825 0 004.81 4.81z" fill="#F15A24"/>
    <path d="M10.249 126.5h54.502a2.757 2.757 0 002.749-2.749V69.25a2.757 2.757 0 00-2.749-2.75H10.249A2.757 2.757 0 007.5 69.249v54.502a2.757 2.757 0 002.749 2.749z" fill="#FBB03B"/>
  </g>
</svg>
