<?xml version="1.0" standalone="no"?>
<!DOCTYPE svg PUBLIC "-//W3C//DTD SVG 1.1//EN" "http://www.w3.org/Graphics/SVG/1.1/DTD/svg11.dtd">
<svg style="background-color:#fff" xmlns="http://www.w3.org/2000/svg" width="680" height="600">
  <path d="M339.725 48.416l216.89 123.857V424.63l-216.89 123.857-213.79-123.857V170.725l213.79-122.309zM96.5 155.242v286.42L336.627 581h6.197L584.5 441.661v-284.87L345.922 19h-10.844L96.5 155.242z" stroke="#000" stroke-width="6"/>
  <path d="M339.725 93.314L158.468 193.948v80.507l312.94 74.314v24.77l-131.683 75.863-131.682-72.766v-34.06l-49.575-18.579v75.863l181.257 103.73 181.257-102.182v-82.055l-311.39-74.314v-23.224l130.133-75.862 134.781 74.314v32.513l48.026 20.126v-77.41L339.725 93.314z" stroke="#221f20" stroke-width="6" fill="#ed1e26"/>
  <path d="M344.373 57.705s8.133-9.676 21.689-4.644c13.555 5.031 18.59 40.253 18.59 40.253s.775 6.193 0 21.675c0 0 13.169-3.096 21.69 0 0 0-10.458 3.096-12.394 6.193 0 0 20.14-1.548 29.435 3.096 9.295 4.645 14.975 3.613 14.975 3.613s-17.041 28.77-17.041 27.61c0-1.162-4.131 2.838-4.131 2.838l12.393 1.548s.388 3.87-6.197 9.29h-7.745s6.196 21.674 6.196 32.512c0 0 4.648 1.548 4.648-21.675 0 0 8.52 5.031 6.197 21.675 0 0-5.422 10.45-3.099 13.934 2.324 3.483 9.296-6.193 9.296-6.193s2.582-14.966-3.099-33.029c0 0-9.295-42.834 20.14-66.057 0 0-15.105 25.546-4.648 32.513 10.457 6.967 7.746-20.127 7.746-20.127s-3.485-27.48 13.943-37.157c0 0-9.295 22.449 1.55 44.898 0 0 11.231 36.383-4.648 58.832-15.88 22.45-23.238 24.771-29.435 43.35-6.197 18.578 4.647 15.482 4.647 15.482s6.584-2.322 9.296-15.482c0 0-3.099-10.45 9.295-20.127 0 0-6.971 11.999-4.648 29.416 2.324 17.418-18.59 40.254-18.59 40.254s-8.133 6.192-13.943 9.289c0 0-3.099 18.965-9.295 24.771 0 0-1.937 35.609-17.042 71.218-15.104 35.609-48.025 65.025-48.025 65.025s-27.886 24.384-63.517 40.253c-27.842 12.4-47.17 2.587-54.292-2.297-1.992-1.367-2.835-6.799-2.726-8.127.55-6.64 2.328-17.232 7.443-22.088 0 0 5.035-11.225 24.787-32.513 0 0 11.232-16.643 13.943-54.187v-32.512s-10.07-5.42-12.394-15.483c-2.323-10.063 1.55-13.933 1.55-13.933s3.485-6.193 18.59-10.838c0 0-8.908-5.419-13.943-23.223 0 0-9.682-15.482-7.746-26.32 0 0-24.787-16.643-9.295-47.994 0 0 6.971-14.321 20.14-20.127 0 0-2.324-17.03 4.647-29.416 6.972-12.385 12.394-15.482 12.394-15.482s8.133-5.806 10.844-6.193l7.747 4.645h15.492s-5.035-8.902-27.886-10.838c0 0-7.746-6.192 26.336-7.74 0 0-28.273-18.192-12.393-44.899 0 0 10.07 21.675 48.025 30.965 0 0 7.746 1.935 18.59 7.74 0 0 .388-29.802-34.082-54.187z" stroke="#000" stroke-width="3" fill="#221f20"/>
  <path d="M240.06 472.11c2.638-5.604 24.787-33.03 24.787-33.03 10.328-9.288 22.205-30.447 22.205-30.447l-13.426 10.837c10.844-15.998 11.877-72.25 11.877-72.25 37.181 10.838 34.083 1.549 34.083 1.549s-29.177.774-44.927-20.127c0 0-11.103-17.03 12.393-21.675l1.55 7.741v1.548h-6.197l1.549 3.097s21.173 25.803 69.714 18.578c48.542-7.225 48.542-32.512 55.772-40.253l9.295-1.548s-12.91 35.608-40.28 46.446c0 0 6.197 5.16 30.985-13.934 0 0-14.976 63.993-30.984 80.507 0 0-18.59 29.932-66.616 61.928 0 0-42.862 28.9-70.231 16.514 0 0-5.68-6.709-1.55-15.482z" stroke="#ed1e26" stroke-width="2" fill="#ca151f"/>
  <path d="M386.976 348.382s-17.428 12.772-37.955 12.772c-20.527 0-49.575-3.483-49.575-3.483l-1.55 1.935s2.325 42.963-3.098 51.091c-5.422 8.128-12.78 20.9-41.828 52.64-4.26 6.579-4.651 12.81 2.783 16.148 20.068 9.01 96.491-54.573 103.338-63.37 8.133-10.45 28.272-33.286 27.885-67.733z" fill="#ed1e26"/>
  <path d="M311.84 370.443s13.168-11.224 21.689 4.645c0 0 2.323 8.902-12.394 34.06-14.717 25.16-48.025 63.864-55.772 58.833-7.745-5.032 6.714-19.095 6.714-19.095l27.369-35.093s12.394-16.256 10.844-23.223l1.55-20.127z" stroke="#ffffff00" stroke-width="2" fill="#f79274"/>
  <path d="M355.217 337.931s10.458 1.161 18.59 1.548c8.134.387-13.167 7.354-13.167 7.354s-37.956 5.42-58.096-1.16c-20.14-6.58-18.59-15.483-18.59-15.483s1.162-4.257 4.648-3.096c3.485 1.16 7.746 3.096 7.746 3.096s15.104 6.193 18.59 6.193c3.486 0 13.556 5.032 40.28 1.548z" stroke="#ffffff00" stroke-width="2" fill="#ed1d25"/>
  <path d="M336.627 344.124s.775 3.87-12.394 3.096c-13.168-.774-21.689-7.74-21.689-7.74s-5.422-5.032 4.648-4.645c0 0 7.359 6.193 26.337 7.74 6.179.505 3.098 1.549 3.098 1.549z" stroke="#ffffff00" stroke-width="2" fill="#f49678"/>
  <path d="M304.094 305.419l-3.099-1.548-8.714 5.031c-.581 11.612 2.517 10.45 2.517 10.45l.969-1.548h.58v3.097c1.744 9.096 21.69 10.837 21.69 10.837l1.549-1.548v-6.193l.387-2.516.387-.387 1.356 10.064c14.717 8.128 31.952 2.128 31.952 2.128l1.356-3.483 1.162-4.064.58-.194v6.193c16.461-.193 23.239-7.74 23.239-7.74l.387-5.032 1.162-.774 1.55 2.709c6.777-1.548 17.04-13.934 17.04-13.934l-3.098-3.096s-43.184 22.062-96.05 4.644l3.098-3.096z" stroke="#000" stroke-width="2" fill="#fff"/>
  <path d="M401.694 266.714s-1.162 26.513-61.969 37.156c0 0-40.473 3.678-57.32-10.837l-4.648-9.29 3.099-4.644s6.777 7.741 10.844 7.741v4.645l1.55-1.548v-3.097s4.26 4.645 21.688 6.193l3.099 3.096v1.549l1.549-3.097 1.549-1.548s20.914 2.129 35.632-3.096l1.549 3.096 1.55-1.548v-3.097s19.558-9.482 26.336-17.03l1.549 6.193v-9.289s9.682-6.58 10.844-15.482l3.099 1.548v12.386z" stroke="#000" stroke-width="2" fill="#fdfdfd"/>
  <path d="M274.659 258.973s-2.324-.775-1.55 1.548c.775 2.322 11.103 7.483 7.747 7.74-3.357.259-10.845-4.644-10.845-4.644s20.398 34.319 79.01 21.675c0 0 30.984-7.225 50.349-43.35l.258-10.063-3.357-1.29-1.29 1.548s.516 5.419-4.132 17.546c-4.647 12.128-38.73 26.32-38.73 26.32h-6.197l10.845-9.29s-19.107-2.838-24.788-10.837c0 0-9.295 11.87-30.984 9.29 0 0-10.844 2.064-26.336-6.193z" stroke="#ed1e26" stroke-width="2" fill="#ca151f"/>
  <path d="M322.684 266.714s9.295-6.387 17.041 0c0 0 4.067 3.87-4.647 9.289 0 0-1.55 2.129 13.943 1.548l6.196-1.548-1.549 3.096s-4.647 3.87-27.885 6.193c-23.239 2.322-35.632-7.741-35.632-7.741s-1.937-2.129 0-3.096c0 0-1.356-2.323 9.295-1.549l-1.937-4.644s15.299.967 25.175-1.548z" fill="#ed1e26"/>
  <path d="M325.783 276.003s-9.296 1.548-12.394 0c-3.099-1.548 0-4.645 0-4.645s5.422-4.387 13.943 1.548c0 0 1.033 1.807-1.55 3.097z" stroke="#ffffff00" stroke-width="2" fill="#f79274"/>
  <path d="M339.725 210.978s-21.43-42.834-58.87-23.223c-37.439 19.61-18.59 51.09-18.59 51.09s14.201 21.934 40.28 21.676c26.078-.258 26.336-10.838 26.336-10.838l-1.55-3.096s-9.553 16.514-37.18 4.644c0 0-22.722-9.805-6.197-37.157 0 0 7.488-8.257 20.14-10.837 12.651-2.58 27.885 13.934 27.885 13.934l7.746-6.193z" stroke="#000" stroke-width="2" fill="#fff"/>
  <path d="M330.43 223.364s-4.647 6.192-4.647 15.482c0 9.289-18.59 10.837-18.59 10.837s-15.751 1.29-23.239-10.837c-7.488-12.128 4.648-26.32 4.648-26.32s10.07-9.29 23.238-4.645 18.074 10.322 18.59 15.483z" stroke="#000" stroke-width="2" fill="#ffff04"/>
  <path d="M322.684 237.298s-4.131 9.547-21.689 9.289c0 0-10.844-2.58-12.393-7.741-1.55-5.161 6.196-3.097 6.196-3.097s1.291 6.193 7.746 6.193c6.456 0 14.46-2.064 17.042-4.644 2.582-2.58 3.098 0 3.098 0z" stroke="#ffffff00" stroke-width="2" fill="#fcda00"/>
  <path d="M288.602 218.719s-8.521 10.321 0 21.675l6.196-4.645s-1.549-9.03 0-12.385c1.55-3.355-6.196-4.645-6.196-4.645z" stroke="#ffffff00" stroke-width="2" fill="#fdc50d"/>
  <path d="M294.798 224.912l-7.358-3.87s2.71-11.096 16.654-10.064c13.942 1.032 19.623 8.257 20.656 8 1.033-.259-3.357 4.644-3.357 4.644s-8.52-11.354-18.849-4.903c-10.328 6.45-7.746 6.193-7.746 6.193z" fill="#eaa319"/>
  <path d="M291.7 215.623v1.548l3.098 1.548 3.099-1.548 3.098-1.548 1.55-3.097-1.55-1.548-3.098-1.548-3.099 1.548-1.549 1.548-1.549 3.097z" fill="#ffff92"/>
  <path d="M311.84 238.846h3.098l1.55 1.548-1.55 3.096-3.098 1.549h-6.197v-1.549l1.55-1.548 1.548-1.548 3.099-1.548z" fill="#fdf583"/>
  <path d="M297.897 228.008s5.938-10.321 13.943-7.74c8.004 2.58 6.197 9.288 6.197 9.288s.516 5.42-4.648 7.742-12.394 0-12.394 0-1.807-1.549-3.098-3.097 0-6.193 0-6.193z" stroke="#000" stroke-width="2" fill="#221f20"/>
  <path d="M335.078 192.4s-14.33-15.096-34.083-17.03c0 0-15.88.773-20.14 4.644 0 0-1.161-18.579 3.099-23.223 0 0 5.422-8.516 15.492-7.741 10.07.774 26.337 26.32 26.337 26.32s4.26 5.805 9.295 6.192c5.035.387 9.295-4.645 9.295-4.645s5.81-9.289 4.648-21.675l-9.296 6.193s-12.78-14.708-18.59-17.03c-5.81-2.322 7.746-1.548 7.746-1.548s10.07 1.16 12.394 4.644c0 0 5.035 0-6.197-7.74 0 0 39.117-9.29 52.673 3.096 13.555 12.385 19.752 25.545 20.14 29.416 0 0 6.97 10.45 9.295 34.06 0 0-16.267 11.612-17.042 18.579h-4.647s0-6.193-4.648-12.386c-4.647-6.193 15.492-6.193 15.492-6.193s5.423 2.323 4.648 3.097c0 0 1.55-8.128-17.041-7.741 0 0-4.648-.387-9.296 4.644 0 0-6.971-4.257-12.393-3.096 0 0 20.14-17.03 20.14-23.223 0-6.193 14.33 17.03 13.942 20.126 0 0 3.873-1.16 0-20.126s-21.689-24.772-21.689-24.772v3.097s-20.914-2.71-26.336 9.29c0 0 16.654-7.355 23.238-3.097 0 0-9.295 15.095-21.689 18.578 0 0-2.324 3.097-7.746-4.644 0 0-12.78 15.869-4.648 24.77v3.097s-8.52-4.644-6.196-13.934c0 0-.388-5.418 6.196-13.933 0 0-10.844 5.805-12.393 13.933z" stroke="#ed1e26" stroke-width="2" fill="#ca151f"/>
  <path d="M334.69 227.621s6.585-16.643 23.626-19.74c17.041-3.096 26.336 9.29 26.336 9.29s10.845 11.224.775 26.32c-6.691 10.03-4.26 11.61-27.111 17.03 0 0-19.365-1.161-23.238-12.386-1.765-5.114-2.626-9.12-2.711-12.386-.102-3.9 2.323-8.128 2.323-8.128z" stroke="#000" stroke-width="2" fill="#fff"/>
  <path d="M344.373 226.46s7.359-9.676 16.267-10.063c8.908-.387 16.266 5.418 16.266 5.418s8.134 8.516 4.648 18.579c-3.486 10.063-11.62 12.773-12.394 12.386-.774-.387-13.168 5.805-21.689-3.097-8.52-8.902-5.81-15.869-5.81-15.869s1.55-6.58 2.712-7.354z" stroke="#000" stroke-width="2" fill="#221f20"/>
  <path d="M378.456 238.846s-10.07 11.224-23.239 9.289c0 0-9.682-3.87-10.844-10.837-1.162-6.967 4.648-10.838 4.648-10.838s1.161-5.419 12.393-7.741c11.232-2.322 18.59 10.838 18.59 10.838s1.163 6.966-1.548 9.289z" stroke="#000" stroke-width="2" fill="#ffff04"/>
  <path d="M376.132 237.298s-3.89 7.91-16.781 7.737c0 0-8.418-.943-9.556-4.383-1.137-3.44 3.873-3.096 3.873-3.096s2.081 4.383 6.82 4.383c4.74 0 10.392-3.438 12.287-5.157 1.896-1.72 3.357.516 3.357.516z" stroke="#ffffff00" stroke-width="2" fill="#fcda00"/>
  <path d="M350.252 226.46s-6.712 6.882-.457 14.45l4.131-2.838s-.262-6.28.875-8.517c1.138-2.236-4.55-3.096-4.55-3.096z" stroke="#ffffff00" stroke-width="2" fill="#fdc50d"/>
  <path d="M354.443 230.589l-5.044-2.582s1.99-7.396 12.227-6.708c10.236.688 12.973 5.85 13.731 5.677.758-.172-2.84 3.613-2.84 3.613s-6.102-8.945-13.685-4.645c-7.582 4.3-4.39 4.645-4.39 4.645z" fill="#eaa319"/>
  <path d="M352.526 224.395v1.032l2.275 1.032 2.275-1.032 2.275-1.032 1.137-2.064-1.137-1.032-2.275-1.032-2.275 1.032-1.137 1.032-1.137 2.064z" fill="#ffff92"/>
  <path d="M367.313 239.875h2.274l1.138 1.032-1.138 2.064-2.274 1.032h-4.55v-1.032l1.137-1.032 1.138-1.032 2.275-1.032z" fill="#fdf583"/>
  <path d="M355.217 235.75s1.55-13.16 10.845-7.742c9.295 5.419-1.55 10.838-1.55 10.838s-5.809 3.483-9.295-3.097z" stroke="#000" stroke-width="2" fill="#221f20"/>
  <path d="M381.554 293.033s17.558-5.16 26.337-27.868c0 0 .375-4.652-.775-11.321-.56-3.243-.636-7.113-1.937-9.192 0 0-1.42-21.804 7.36-25.933 8.778-4.129 12.393-12.386 12.393-12.386s-5.68 13.934 1.549 18.579c7.23 4.644 12.394-7.741 12.394-7.741s7.746-5.677 4.647-32.513c0 0 0-5.16-3.098-17.03-3.099-11.87-1.033-17.546 3.098-29.416 0 0-.516 14.45 10.845 13.934 11.36-.516 10.844-15.482 10.844-15.482v-12.386s7.746 22.707 6.197 32.513c0 0 5.164 12.901-17.041 41.801-22.206 28.9-23.238 35.61-23.238 35.61s-2.324 15.481 4.647 18.836c0 0 6.197 6.45 15.492-1.807 0 0-5.68 22.707-26.336 30.965 0 0-20.14 12.901-43.378 10.837z" stroke="#fd0" stroke-width="2" fill="#fdc30d"/>
  <path d="M406.341 282.196s6.972-2.323 6.197-10.838c-.774-8.515-3.098-12.385-3.098-12.385s-.89-13.964 0-21.675c1.162-10.064 6.971-13.934 8.779-14.966 0 0-.259 7.225 1.549 9.289 1.807 2.064 7.746.516 7.746.516s-5.164 13.676 2.065 20.643c0 0 1.033 5.934 10.845 7.74 0 0-.258 8.774-18.59 20.127 0 0-11.878 4.645-15.493 1.549z" fill="#ffde00"/>
  <path d="M452.817 193.948s10.07-14.192 12.394-23.224c2.324-9.03 3.809-14.062 1.743-22.836 0 0-1.743 5.032-14.137 8.903 0 0-8.262-1.226-10.07-7.16 0 0 .674 17.196 2.324 21.094 2.84 6.708 2.543 8.989 2.324 11.611-.193 2.322-.774 6.967-.774 17.804 0 0 3.356-1.29 6.197-6.192z" stroke="#ffffff00" stroke-width="2" fill="#ffde00"/>
  <path d="M446.62 159.887s7.488 6.967 17.042 0c0 0-4.906 19.353-9.295 23.223 0 0-8.78-14.192-7.746-23.223zM415.637 237.298s1.29 4.128 7.745 4.644c0 0-1.549 18.579 10.845 23.223 0 0-5.68 9.548-17.041 13.934l-1.55-41.801z" stroke="#fdd866" stroke-width="2" fill="#fff686"/>
  <path d="M262.265 218.719s1.55 17.03 10.845 20.127c0 0 4.647 6.45 10.844 12.385 6.197 5.935-9.812-2.58-10.844-4.644-1.033-2.064 1.29-4.645-1.55-6.193s-4.647 0-4.647 0-7.488-8.773-4.648-21.675z" fill="#e6e6e6"/>
  <path d="M287.052 173.82s-5.422-10.32 4.648-17.03c10.07-6.708 24.787 13.935 24.787 13.935s.775 3.354-3.098 3.096c-3.873-.258-12.136-2.322-26.337 0z" fill="#ed1e26"/>
  <path d="M291.7 161.435s3.615-6.193 9.295 0-1.549 6.193-1.549 6.193-4.39.774-7.746-6.193z" fill="#f79274"/>
  <path d="M347.471 142.857s16.009-10.58 38.73 4.644c0 0 4.132 7.225-15.492 7.741-19.623.517-23.238-12.385-23.238-12.385z" stroke="#ffffff00" stroke-width="2" fill="#ed1e26"/>
  <path d="M359.865 147.501s-1.55-4.902 4.648-4.644c6.197.258 7.746 3.096 7.746 3.096s-.259 2.839-3.099 3.097c-2.84.258-8.004.774-9.295-1.549z" stroke="#ffffff00" stroke-width="2" fill="#f79274"/>
  <path d="M357.8 173.82s-4.132-6.45 16.008-7.74c0 0-11.877 10.837-12.394 10.837-.516 0-3.614 1.807-3.614-3.096z" stroke="#ffffff00" stroke-width="2" fill="#ed1e26"/>
  <path d="M359.865 172.273s.258-5.677 6.197-1.548c0 0-2.582 6.708-6.197 1.548z" stroke="#ffffff00" stroke-width="2" fill="#f79274"/>
  <path d="M393.948 214.074s5.035-5.805 9.295-3.096c4.26 2.71-3.099 6.193-3.099 6.193l-6.196-3.097z" stroke="#ffffff00" stroke-width="2" fill="#ed1e26"/>
  <path d="M397.046 212.526s.258-5.677 6.197-1.548c0 0-2.582 6.709-6.197 1.548z" stroke="#ffffff00" stroke-width="2" fill="#f79274"/>
  <path d="M322.684 107.248s-12.394-15.224-9.295-25.804c0 0-3.099 10.58 41.828 25.804 0 0 19.624 7.225 27.886 15.482l1.55 3.096s12.135-5.934 46.476 6.193l-12.394 18.579s1.29-10.064-20.14-17.03c0 0-13.684-3.871-17.041 0 0 0-22.722-25.03-58.87-26.32zM327.332 122.73v7.741s-4.648-6.193-15.492-6.193l15.492-1.548zM353.668 59.253s5.423-3.612 9.296-3.096c0 0 17.299 21.417 18.59 44.898 0 0-8.779-27.868-27.886-41.802z" stroke="#568e37" stroke-width="2" fill="#416b2a"/>
  <path d="M387.75 118.085s8.005-1.548 10.845-1.548l-7.746 3.097-3.098-1.549z" stroke="#568e37" stroke-width="2" fill="none"/>
  <path d="M414.087 162.983c.517-1.032 10.845 1.033 12.394 0 0 0-1.291 1.29-10.844 3.097 0 0-2.066-2.064-1.55-3.097z" stroke="#568e37" stroke-width="2" fill="#416b2a"/>
  <path d="M209.592 232.653v-10.838l130.133-75.862 134.781 74.314v32.513l48.026 20.126v-77.41L339.725 93.314 158.468 193.948v38.705M471.408 362.702v10.838l-131.683 75.862-131.682-72.766v-34.06l-49.575-18.579v75.863l181.257 103.73 181.257-102.182v-38.706" stroke="#221f20" stroke-width="6" fill="#ed1e26"/>
  <g>
    <path d="M422.488 201.601c1.281-.563 3.993-3.848 3.993-21.587 0 0 8.52 5.031 6.197 21.675 0 0-5.422 10.45-3.099 13.934 2.324 3.483 9.296-6.193 9.296-6.193s2.582-14.966-3.099-33.029c0 0-9.295-42.834 20.14-66.057 0 0-15.105 25.546-4.648 32.513 10.457 6.967 7.746-20.127 7.746-20.127s-3.485-27.48 13.943-37.157c0 0-9.295 22.449 1.55 44.898 0 0 11.231 36.383-4.648 58.832-15.88 22.45-23.238 24.771-29.435 43.35-6.197 18.578 4.647 15.482 4.647 15.482s6.584-2.322 9.296-15.482c0 0-3.099-10.45 9.295-20.127 0 0-6.971 11.999-4.648 29.416 2.324 17.418-18.59 40.254-18.59 40.254s-7.432 5.659-13.162 8.862" stroke="#000" stroke-width="3" fill="#221f20"/>
    <path d="M381.554 293.033s17.558-5.16 26.337-27.868c0 0 .375-4.652-.775-11.321-.56-3.243-.636-7.113-1.937-9.192 0 0-1.42-21.804 7.36-25.933 8.778-4.129 12.393-12.386 12.393-12.386s-5.68 13.934 1.549 18.579c7.23 4.644 12.394-7.741 12.394-7.741s7.746-5.677 4.647-32.513c0 0 0-5.16-3.098-17.03-3.099-11.87-1.033-17.546 3.098-29.416 0 0-.516 14.45 10.845 13.934 11.36-.516 10.844-15.482 10.844-15.482v-12.386s7.746 22.707 6.197 32.513c0 0 5.164 12.901-17.041 41.801-22.206 28.9-23.238 35.61-23.238 35.61s-2.324 15.481 4.647 18.836c0 0 6.197 6.45 15.492-1.807 0 0-5.68 22.707-26.336 30.965 0 0-20.14 12.901-43.378 10.837z" stroke="#fd0" stroke-width="2" fill="#fdc30d"/>
    <path d="M406.341 282.196s6.972-2.323 6.197-10.838c-.774-8.515-3.098-12.385-3.098-12.385s-.89-13.964 0-21.675c1.162-10.064 6.971-13.934 8.779-14.966 0 0-.259 7.225 1.549 9.289 1.807 2.064 7.746.516 7.746.516s-5.164 13.676 2.065 20.643c0 0 1.033 5.934 10.845 7.74 0 0-.258 8.774-18.59 20.127 0 0-11.878 4.645-15.493 1.549z" fill="#ffde00"/>
    <path d="M452.817 193.948s10.07-14.192 12.394-23.224c2.324-9.03 3.809-14.062 1.743-22.836 0 0-1.743 5.032-14.137 8.903 0 0-8.262-1.226-10.07-7.16 0 0 .674 17.196 2.324 21.094 2.84 6.708 2.543 8.989 2.324 11.611-.193 2.322-.774 6.967-.774 17.804 0 0 3.356-1.29 6.197-6.192z" stroke="#ffffff00" stroke-width="2" fill="#ffde00"/>
    <path d="M446.62 159.887s7.488 6.967 17.042 0c0 0-4.906 19.353-9.295 23.223 0 0-8.78-14.192-7.746-23.223zM415.637 237.298s1.29 4.128 7.745 4.644c0 0-1.549 18.579 10.845 23.223 0 0-5.68 9.548-17.041 13.934l-1.55-41.801z" stroke="#fdd866" stroke-width="2" fill="#fff686"/>
  </g>
</svg>
