<?xml version="1.0" encoding="UTF-8" standalone="no"?>
<svg xmlns="http://www.w3.org/2000/svg" id="svg72" version="1.1" viewBox="0 0 512.028 512.028">
  <defs id="defs4">
    <style id="style2">
      .a{fill:#f29c1f}.c{fill:#2c2f38}.e{fill:#fff}.f{fill:#f3d55b}.h{isolation:isolate}
    </style>
  </defs>
  <path id="path8" d="M416.23 416.23C271.809 560.648 131.363 457.809 93.582 495.5c-37.6 37.7-76.184-.883-76.184-.883a50.366 50.366 0 01-4.589-5.562c-9.094-12-25.336-41.578 3.707-70.617 35.132-35.223-51.641-159.34 52.789-292.9q1.986-2.648 4.238-5.3a350.274 350.274 0 0146.695-46.695c135.5-110.965 262.535-21.453 298.2-57.027 29.039-29.043 58.613-12.8 70.617-3.707a50.366 50.366 0 015.562 4.589s38.578 38.579.883 76.184c-37.691 37.781 65.148 178.227-79.27 322.648z" class="a"/>
  <path id="path10" d="M483.762 81.84c-37.785 37.695 57.906 170.992-86.512 315.41s-277.715 48.727-315.41 86.512a49.185 49.185 0 01-69.031 5.293c-9.094-12-25.336-41.578 3.707-70.617 35.132-35.223-51.641-159.34 52.789-292.9q1.986-2.648 4.238-5.3a350.274 350.274 0 0146.695-46.695c135.5-110.965 262.535-21.453 298.2-57.027 29.039-29.043 58.613-12.8 70.617-3.707a49.185 49.185 0 01-5.293 69.031z" fill="#f0c419"/>
  <path id="path12" d="M308.973 105.938a26.483 26.483 0 11-26.481-26.481 26.482 26.482 0 0126.481 26.481z" class="c"/>
  <path id="path14" d="M291.32 105.938a8.828 8.828 0 11-17.656 0c0-4.876 3.953-3.072 8.828-3.072s8.828-1.804 8.828 3.072z" stroke="#2c2f38" fill="#fff"/>
  <path id="path16" d="M432.559 105.938a26.483 26.483 0 11-26.481-26.481 26.482 26.482 0 0126.481 26.481z" class="c"/>
  <path id="path18" d="M414.906 105.938a8.828 8.828 0 01-17.656 0c0-4.876 3.953-2.688 8.828-2.688s8.828-2.188 8.828 2.688z" class="e"/>
  <path id="path20" d="M143.578 424.031a9.229 9.229 0 01-6.531 1.766 9.074 9.074 0 01-3.238-1.192 7.431 7.431 0 01-2.6-2.242 7.3 7.3 0 01-1.465-3.105 10.063 10.063 0 01-.289-3.434 8.834 8.834 0 014.879-6.7 5.362 5.362 0 011.652-.6 6.834 6.834 0 011.766-.328 13.694 13.694 0 011.7 0 10.3 10.3 0 013.239 1.2 8.942 8.942 0 012.6 2.242 9.347 9.347 0 011.766 6.543 13.921 13.921 0 01-.418 1.64 6.266 6.266 0 01-.785 1.6 5.465 5.465 0 01-1.016 1.441 10.463 10.463 0 01-1.26 1.169z" class="a"/>
  <path id="path22" d="M164.953 452.129a9.229 9.229 0 01-6.535 1.766 9 9 0 01-3.238-1.192 8.343 8.343 0 01-4.071-5.348 10.364 10.364 0 01-.281-3.433 8.818 8.818 0 014.871-6.7 5.278 5.278 0 011.66-.6 6.792 6.792 0 011.766-.328 13.694 13.694 0 011.695 0 10.232 10.232 0 013.239 1.2 8.839 8.839 0 012.6 2.242 9.333 9.333 0 011.766 6.539 13.917 13.917 0 01-.426 1.641 6.761 6.761 0 01-.777 1.6 5.54 5.54 0 01-1.012 1.437 11.2 11.2 0 01-1.257 1.176z" class="a"/>
  <path id="path24" d="M214.43 458.867a8.448 8.448 0 01-9.774.555 8.276 8.276 0 01-4.058-5.3 10.158 10.158 0 01-.293-3.434 8.825 8.825 0 014.883-6.707 5.164 5.164 0 011.652-.6 7.089 7.089 0 011.765-.328 13.554 13.554 0 011.7.047 10.142 10.142 0 013.238 1.191 8.9 8.9 0 012.594 2.25 9.282 9.282 0 011.765 6.531 13.2 13.2 0 01-.414 1.645 6.444 6.444 0 01-.785 1.6 5.446 5.446 0 01-1.015 1.438 10.039 10.039 0 01-1.258 1.112z" class="a"/>
  <path id="path26" d="M193.066 430.793a8.466 8.466 0 01-9.781.559 8.3 8.3 0 01-4.058-5.3 10.236 10.236 0 01-.293-3.446 8.84 8.84 0 014.882-6.7 5.377 5.377 0 011.661-.6 6.826 6.826 0 011.765-.328 14.668 14.668 0 011.7.043 10.262 10.262 0 013.231 1.192 8.933 8.933 0 012.594 2.242 9.274 9.274 0 011.768 6.545 11.766 11.766 0 01-.414 1.641 6.709 6.709 0 01-.777 1.6 5.679 5.679 0 01-1.024 1.442 10.49 10.49 0 01-1.254 1.11z" class="a"/>
  <path id="path28" d="M242.539 437.484A9.2 9.2 0 01236 439.25a9.091 9.091 0 01-3.238-1.191 7.444 7.444 0 01-2.6-2.243 7.336 7.336 0 01-1.465-3.1 10.2 10.2 0 01-.289-3.442 8.834 8.834 0 014.879-6.7 5.335 5.335 0 011.652-.6 6.793 6.793 0 011.766-.329 14.737 14.737 0 011.695.043 10.122 10.122 0 013.239 1.2 8.839 8.839 0 012.6 2.242 9.333 9.333 0 011.766 6.539 15.9 15.9 0 01-.418 1.641 6.551 6.551 0 01-.785 1.6 5.47 5.47 0 01-1.016 1.442 9.829 9.829 0 01-1.247 1.132z" class="a"/>
  <path id="path30" d="M141.418 125.262a9.28 9.28 0 011.34-6.637 9.147 9.147 0 012.515-2.367 8.3 8.3 0 016.594-1.258 10.131 10.131 0 013.207 1.273 8.827 8.827 0 013.821 7.36 5.178 5.178 0 01-.2 1.765 6.515 6.515 0 01-.484 1.707 12.949 12.949 0 01-.793 1.5 10.086 10.086 0 01-2.508 2.364 8.7 8.7 0 01-3.168 1.324 9.284 9.284 0 01-6.64-1.34 13.944 13.944 0 01-1.282-1.113 6.425 6.425 0 01-1.082-1.4 5.55 5.55 0 01-.832-1.554 10.683 10.683 0 01-.488-1.624z" class="a"/>
  <path id="path32" d="M106.734 131.855a8.826 8.826 0 0110.45-10.257 10.2 10.2 0 013.207 1.281 8.839 8.839 0 013.832 7.355 5.521 5.521 0 01-.2 1.766 7.059 7.059 0 01-.489 1.711 14.311 14.311 0 01-.793 1.5 10.253 10.253 0 01-2.515 2.367 8.858 8.858 0 01-3.168 1.313 9.275 9.275 0 01-6.633-1.34 14.383 14.383 0 01-1.289-1.1 6.853 6.853 0 01-1.074-1.414 5.191 5.191 0 01-.883-1.555 10.948 10.948 0 01-.445-1.627z" class="a"/>
  <path id="path34" d="M78.645 173.145A9.293 9.293 0 0180 166.5a8.873 8.873 0 012.516-2.356 8.3 8.3 0 016.586-1.261 10.136 10.136 0 013.2 1.277 8.835 8.835 0 013.832 7.356 5.518 5.518 0 01-.2 1.765 6.836 6.836 0 01-.493 1.719 13 13 0 01-.793 1.5 10.025 10.025 0 01-2.515 2.363 8.959 8.959 0 01-3.16 1.325 9.308 9.308 0 01-6.637-1.352 13.264 13.264 0 01-1.289-1.1 6.767 6.767 0 01-1.078-1.414 5.409 5.409 0 01-.883-1.55 11.158 11.158 0 01-.441-1.627z" class="a"/>
  <path id="path36" d="M113.328 166.551a8.464 8.464 0 013.856-9 8.283 8.283 0 016.6-1.254 10.213 10.213 0 013.2 1.277 8.766 8.766 0 013.821 7.356 5.2 5.2 0 01-.2 1.765 6.5 6.5 0 01-.485 1.7 14.122 14.122 0 01-.793 1.507 10.362 10.362 0 01-2.508 2.36 8.767 8.767 0 01-3.168 1.324 9.307 9.307 0 01-6.64-1.344 15.087 15.087 0 01-1.278-1.1 6.372 6.372 0 01-1.078-1.414 5.379 5.379 0 01-.882-1.555 11.031 11.031 0 01-.445-1.622z" class="a"/>
  <path id="path38" d="M85.246 207.836a8.461 8.461 0 013.859-9 8.274 8.274 0 016.594-1.254 10 10 0 013.2 1.281 8.762 8.762 0 013.825 7.352 5.284 5.284 0 01-.2 1.766 6.266 6.266 0 01-.484 1.7 13.5 13.5 0 01-.8 1.5 10.031 10.031 0 01-2.508 2.363 8.68 8.68 0 01-3.168 1.324 9.253 9.253 0 01-6.628-1.34 12.923 12.923 0 01-1.29-1.113 6.187 6.187 0 01-1.078-1.4 5.413 5.413 0 01-.836-1.555 10.63 10.63 0 01-.486-1.624z" class="a"/>
  <path id="path40" d="M414.906 344.285a8.829 8.829 0 01-6.886-14.347 162.965 162.965 0 0033.367-91.586 8.828 8.828 0 1117.656 0A179.208 179.208 0 01421.8 340.973a8.843 8.843 0 01-6.894 3.312z" class="f"/>
  <path id="path42" d="M397.25 370.766a11.064 11.064 0 01-1.676-.176 5.308 5.308 0 01-1.679-.531 6.585 6.585 0 01-1.59-.793l-1.325-1.059a10.172 10.172 0 01-1.851-2.914 8.32 8.32 0 010-6.707 8.22 8.22 0 011.851-2.914 14.427 14.427 0 011.325-1.059 6.747 6.747 0 011.59-.8 5.4 5.4 0 011.679-.527 8.518 8.518 0 019.8 5.3 8.32 8.32 0 010 6.707 10.185 10.185 0 01-1.855 2.914 9.284 9.284 0 01-6.269 2.559z" class="f"/>
  <path id="path44" d="M397.25 167.73a8.83 8.83 0 018.828 8.829v17.656a61.793 61.793 0 11-123.586 0v-17.656a8.827 8.827 0 018.828-8.829z" class="c"/>
  <path id="path46" d="M400.867 219.02a61.791 61.791 0 01-113.168 0 96.54 96.54 0 0156.586-15.977 96.526 96.526 0 0156.582 15.977z" fill="#c03a2b"/>
  <g id="g58" class="h">
    <g id="g56" class="h">
      <path id="path48" d="M62.188 448.4a40.431 40.431 0 0012.2-1.55 20.46 20.46 0 007.722-4.232 14.109 14.109 0 004.029-6.346 27.967 27.967 0 001.12-8.179 20.4 20.4 0 00-7.159-15.936q-7.167-6.345-24.623-13.679a164.887 164.887 0 01-15.221-7.757 56.347 56.347 0 01-13.654-11 52.841 52.841 0 01-9.849-16.078q-3.808-9.445-3.8-22.988a69.74 69.74 0 014.029-24.4 52.262 52.262 0 0111.416-18.476 49.611 49.611 0 0117.907-11.7 65.121 65.121 0 0123.727-4.09q15.665 0 27.084 4.231a86.291 86.291 0 0118.8 9.307l-10.073 34.694a85.882 85.882 0 00-14.443-7.477q-7.947-3.239-19.138-3.243-12.538 0-18.019 4.372t-5.484 13.4a18.533 18.533 0 002.014 9.026 22.3 22.3 0 005.708 6.628 47.008 47.008 0 008.506 5.359q4.812 2.4 10.633 4.937a211.31 211.31 0 0121.041 11.14 57.947 57.947 0 0114.884 12.837 49.158 49.158 0 018.842 17.2q2.907 9.878 2.91 23.976 0 27.362-15.221 42.449t-45.888 15.091a101.537 101.537 0 01-18.578-1.552 99.029 99.029 0 01-14.662-3.807 73.051 73.051 0 01-10.968-4.8 77.252 77.252 0 01-7.722-4.8l9.848-34.976a78.247 78.247 0 0017.124 8.6q10.184 3.819 24.958 3.819z" class="e"/>
      <path id="path50" d="M258.045 384.092q0 25.109-5.931 44.142t-16.229 31.873a66.63 66.63 0 01-24.51 19.322 72.756 72.756 0 01-30.554 6.487 70.936 70.936 0 01-30-6.487 68.827 68.827 0 01-24.621-19.322q-10.524-12.831-16.564-31.873t-6.036-44.142q0-25.1 6.267-44.142t16.9-32.013a68.658 68.658 0 0154.058-25.95 70.915 70.915 0 0129.994 6.488 68.347 68.347 0 0124.623 19.462Q245.956 320.914 252 339.95t6.045 44.142zm-118.411 0a110.413 110.413 0 002.8 25.95 65.921 65.921 0 008.058 19.885 38.369 38.369 0 0012.871 12.834 35.82 35.82 0 0034.807 0 38.043 38.043 0 0012.983-12.834 66.127 66.127 0 008.058-19.885 110.625 110.625 0 002.8-25.95 112.455 112.455 0 00-2.8-26.09 66.12 66.12 0 00-8.058-20.026 38.112 38.112 0 00-12.983-12.833 33.771 33.771 0 00-17.347-4.514 32.785 32.785 0 00-17.46 4.654 39.787 39.787 0 00-12.871 12.975 65.927 65.927 0 00-8.058 20.026 110.9 110.9 0 00-2.8 25.808z" class="e"/>
      <path id="path52" d="M307.959 485.916q-16.342 0-28.2-5.782a53.189 53.189 0 01-19.586-16.078 69.415 69.415 0 01-11.416-24.539 125.217 125.217 0 01-3.693-31.45V286.5h34.916v117.9a82.448 82.448 0 002.126 20.167 40.811 40.811 0 005.82 13.539 21.1 21.1 0 008.954 7.475 28.866 28.866 0 0011.528 2.257 25.322 25.322 0 0020.7-9.872q7.943-9.87 7.946-33.566V286.5h34.92v121.567a123.345 123.345 0 01-3.807 31.591 69.686 69.686 0 01-11.639 24.68 52.473 52.473 0 01-19.922 15.936q-12.082 5.64-28.647 5.642z" class="e"/>
      <path id="path54" d="M411.146 284.244q34.92 0 53.5 15.654t18.578 48.655q0 20.592-7.5 33.424a52.261 52.261 0 01-21.6 20.168q4.7 7.337 9.849 16.782t10.184 19.744q5.037 10.3 9.738 21.436t8.729 21.86h-39.035q-4.272-9.586-8.653-19.462t-8.985-19.18q-4.607-9.309-9.1-17.629t-8.99-15.091h-17.235v71.362h-34.919V289.32a160.218 160.218 0 0123.615-3.949q12.198-1.122 21.824-1.127zm2.015 37.514q-3.808 0-6.827.281t-5.708.565v53.027h9.849q19.693 0 28.2-6.2t8.506-21.155q0-14.385-8.619-20.449t-25.401-6.069z" class="e"/>
    </g>
  </g>
  <g id="g70" class="h">
    <g id="g68" class="h">
      <path id="path60" d="M55.68 459.249a40.426 40.426 0 0012.2-1.551 20.457 20.457 0 007.723-4.231 14.121 14.121 0 004.028-6.346 27.974 27.974 0 001.12-8.18 20.4 20.4 0 00-7.163-15.936q-7.165-6.346-24.623-13.68a164.872 164.872 0 01-15.22-7.757 56.333 56.333 0 01-13.655-11 52.829 52.829 0 01-9.85-16.078q-3.808-9.445-3.805-22.99a69.75 69.75 0 014.029-24.4 52.272 52.272 0 0111.416-18.47 49.6 49.6 0 0117.907-11.7 65.1 65.1 0 0123.727-4.09q15.666 0 27.085 4.23a86.3 86.3 0 0118.8 9.308l-10.07 34.688a85.993 85.993 0 00-14.438-7.474q-7.949-3.238-19.139-3.243-12.537 0-18.019 4.372t-5.483 13.4a18.525 18.525 0 002.014 9.027 22.255 22.255 0 005.708 6.627 46.887 46.887 0 008.506 5.36q4.81 2.4 10.632 4.936a211.4 211.4 0 0121.041 11.141 57.916 57.916 0 0114.886 12.834 49.173 49.173 0 018.841 17.2q2.907 9.878 2.91 23.976 0 27.361-15.221 42.449T55.68 496.764a101.629 101.629 0 01-18.58-1.552 99.056 99.056 0 01-14.661-3.812 72.994 72.994 0 01-10.968-4.8 77.068 77.068 0 01-7.722-4.795l9.851-34.966a78.225 78.225 0 0017.124 8.6q10.176 3.811 24.956 3.81z"/>
      <path id="path62" d="M259.371 394.939q0 25.11-5.932 44.143t-16.228 31.873a66.628 66.628 0 01-24.511 19.321 72.734 72.734 0 01-30.554 6.488 70.921 70.921 0 01-29.994-6.488 68.816 68.816 0 01-24.623-19.321q-10.524-12.833-16.564-31.873t-6.044-44.143q0-25.1 6.268-44.141t16.9-32.014a68.649 68.649 0 0154.057-25.949 70.934 70.934 0 0130 6.487 68.346 68.346 0 0124.622 19.462q10.52 12.978 16.564 32.014t6.039 44.141zm-118.412 0a110.42 110.42 0 002.8 25.951 65.914 65.914 0 008.058 19.884 38.351 38.351 0 0012.871 12.834 35.813 35.813 0 0034.807 0 38.034 38.034 0 0012.983-12.834 66.121 66.121 0 008.058-19.884 110.634 110.634 0 002.8-25.951 112.446 112.446 0 00-2.8-26.089 66.137 66.137 0 00-8.058-20.027 38.121 38.121 0 00-12.983-12.833 33.772 33.772 0 00-17.348-4.513 32.772 32.772 0 00-17.459 4.654 39.774 39.774 0 00-12.871 12.974 65.933 65.933 0 00-8.058 20.027 110.9 110.9 0 00-2.8 25.807z"/>
      <path id="path64" d="M317.119 496.764q-16.341 0-28.2-5.783A53.177 53.177 0 01269.33 474.9a69.424 69.424 0 01-11.416-24.539 125.2 125.2 0 01-3.693-31.449V297.348h34.92v117.9a82.4 82.4 0 002.126 20.167 40.811 40.811 0 005.819 13.539 21.1 21.1 0 008.954 7.475 28.866 28.866 0 0011.528 2.257 25.322 25.322 0 0020.705-9.873q7.942-9.87 7.946-33.565v-117.9h34.92v121.567a123.345 123.345 0 01-3.807 31.591 69.694 69.694 0 01-11.639 24.68 52.482 52.482 0 01-19.922 15.936q-12.087 5.64-28.652 5.642z"/>
      <path id="path66" d="M428.142 295.092q34.918 0 53.5 15.654t18.576 48.654q0 20.594-7.5 33.424a52.242 52.242 0 01-21.6 20.168q4.7 7.338 9.849 16.782t10.184 19.745q5.037 10.3 9.738 21.436t8.729 21.859h-39.034q-4.272-9.585-8.653-19.461t-8.985-19.18q-4.607-9.309-9.1-17.629t-8.99-15.091h-17.235v71.361H382.7V300.168a160.218 160.218 0 0123.615-3.949q12.2-1.119 21.827-1.127zm2.014 37.513q-3.808 0-6.827.282t-5.708.564v53.028h9.849q19.695 0 28.2-6.206t8.506-21.154q0-14.387-8.618-20.449t-25.402-6.065z"/>
    </g>
  </g>
</svg>
