<?xml version="1.0" encoding="utf-8"?>
<svg version="1.1" id="Layer_1" xmlns="http://www.w3.org/2000/svg" x="0" y="0" viewBox="0 0 32 32" xml:space="preserve">
  <style>
  </style>
  <path d="M23.1 17.3c-.6 3.3-3.5 5.9-7.1 5.9-4 0-7.2-3.2-7.2-7.2S12 8.8 16 8.8c3.3 0 6.1 2.2 6.9 5.2h8C30 6.7 23.7 1 16 1 7.7 1 1 7.7 1 16s6.7 15 15 15c7.9 0 14.3-6 15-13.7h-7.9z" fill="#3481e1"/>
  <path d="M23.1 17.3c-.6 3.3-3.5 5.9-7.1 5.9-4 0-7.2-3.2-7.2-7.2S12 8.8 16 8.8c3.3 0 6.1 2.2 6.9 5.2h4.7c-.9-5.5-5.7-9.7-11.6-9.7C9.5 4.3 4.3 9.5 4.3 16S9.5 27.8 16 27.8c6.1 0 11-4.6 11.7-10.5h-4.6z" fill="#14397f"/>
  <path d="M23.1 17.3c-.6 3.3-3.5 5.9-7.1 5.9-4 0-7.2-3.2-7.2-7.2S12 8.8 16 8.8c3.3 0 6.1 2.2 6.9 5.2h2.7c-.9-4.5-4.9-7.8-9.6-7.8-5.4 0-9.8 4.4-9.8 9.8s4.4 9.8 9.8 9.8c5 0 9.1-3.7 9.7-8.5h-2.6z" fill="#81c5fa"/>
</svg>
