<svg viewBox="0 0 77 79.43" xmlns="http://www.w3.org/2000/svg">
  <linearGradient id="a" gradientTransform="matrix(31.93 0 0 -32.93 20238.67 19407.46)" gradientUnits="userSpaceOnUse" x1="-631.47" x2="-633.88" y1="588.08" y2="588.08">
    <stop offset="0" stop-color="#22e6b8"/>
    <stop offset="1" stop-color="#00c1ce"/>
  </linearGradient>
  <path d="M51.61 29.35a15.86 15.86 0 00-22.18 0 15.57 15.57 0 00.06 22.09 15.84 15.84 0 0022.25.07c.11-.11.54-.58 1.3-1.42l-7.4-7.35c-.76.88-1.16 1.34-1.21 1.38a5.36 5.36 0 01-7.56 0 5.27 5.27 0 01-.07-7.45 5.36 5.36 0 017.5.06l19.78 19.63a29.74 29.74 0 01-24.28 12.7 29.35 29.35 0 1123.56-46.84q-1.3 1.52-6.69 7.57L64 37l12.08-13.55a39.77 39.77 0 10-36.28 56c10 0 18.27-3.11 26.36-10A42.53 42.53 0 0077 54.61z" fill="url(#a)"/>
</svg>
