<svg xmlns="http://www.w3.org/2000/svg" width="491" height="147">
  <g fill="#1C1F3F" fill-rule="evenodd">
    <path d="M32.061 92.184c-1.577 8.447-3.844 14.291-10.648 14.291-6.803 0-7.74-5.844-6.41-14.34l10.55-66.155c1.283-8.055 3.945-12.867 10.453-12.867 6.508 0 7.394 5.207 6.21 12.721l-3.203 20.774h14.198l3.007-19.646C58.436 12.768 56.957 0 38.126 0c-15.578 0-24.65 10.117-27.115 26.52L.906 90.808C-1.61 106.574.116 119 19.096 119c20.903 0 25.586-15.863 27.607-28.437l3.894-19.4H36.301l-4.24 21.02M96 36c-8.83.149-16.645 5.752-19.642 14.077.786-4.923 1.522-11.124 1.62-12.945H64.816c-.931 7.825-2.06 14.223-4.173 27.464L52 118h14.045l7.121-45.086c2.455-15.75 10.558-19.687 20.084-19.687L96 36m41.827 1c-9.876 30.135-17.135 50.472-20.84 64.328h-.344c.888-9.898.542-36.224 0-64.081H101.63l4.938 84.418c-3.407 10.293-6.32 12.371-11.753 12.371a30.88 30.88 0 01-4.592-.398L88 146.357a44.08 44.08 0 006.765.643c9.136 0 17.087-1.287 25.68-24.345L152 37h-14.173m82.081 63.848l12.095-77.677h87.972L322 10.35h-88.022L235.112 3h-14.119l-1.085 7.398h-55.884L162 23.22h55.785l-12.342 80.143c-2.123 13.366 3.16 16.618 12.342 16.618a26.936 26.936 0 009.873-1.478l1.678-10.702c-1.623.332-3.28.479-4.935.444-5.036 0-5.135-3.454-4.493-7.397"/>
    <path d="M269.34 36c-13.596 0-24.06 8.133-26.652 24.793l-5.085 33.371c-2.69 17.258 3.666 25.836 18.239 25.836 14.572 0 23.962-8.53 26.7-26.085l4.89-32.427C290.072 44.976 283.421 36 269.34 36m4.254 24.793l-5.28 33.768c-1.37 8.777-4.599 12.893-10.32 12.893s-7.726-4.958-6.553-12.694l5.281-33.868c1.272-7.884 4.499-12.197 10.368-12.197 5.868 0 7.58 5.008 6.504 12v.098M389.73 36.595c-6.427-.35-12.555 2.771-16.096 8.2L379.848 3h-14.187L348 119h13.992l8.463-54.343c1.664-10.326 4.305-15.514 11.546-15.514 7.24 0 6.8 5.485 5.772 11.808L378.722 119h13.993l9.784-61.555c1.712-11.612-.587-20.85-12.77-20.85M449.83 37c-9.878 30.135-17.186 50.472-20.843 64.328h-.346c.89-9.898.545-36.224 0-64.081H413.63l4.94 84.418c-3.408 10.293-6.322 12.371-11.754 12.371a30.881 30.881 0 01-4.593-.398L400 146.357c2.234.388 4.499.603 6.766.643 9.136 0 17.086-1.287 25.679-24.345L464 37h-14.17m27.112-34L459 119h14.059L491 3h-14.058M189.33 36.006c-6.855-.178-13.218 3.493-16.436 9.477.51-2.725.825-5.48.942-8.25h-13.704c-.645 4.91-1.838 12.275-3.575 23.225L143 145h14.251l5.314-33.189c1.752 4.897 6.703 7.935 11.917 7.317 11.77 0 19.515-7.808 22.445-26.122l5.363-33.531c2.531-15.76-1.689-23.469-12.96-23.469m-1.44 24.548l-5.264 32.7c-1.29 8.247-4.17 13.206-10.578 13.206-7.249 0-7.546-7.12-6.156-15.81l4.37-27.345c1.587-9.82 4.965-14.73 11.718-14.73 4.917.099 7.25 3.632 5.91 11.98m144.401-24.552c-6.612-.128-12.764 3.34-16.026 9.034l-.299.443a58.17 58.17 0 00.794-8.25h-13.642c-.645 4.911-1.836 12.276-3.574 23.225L286 145h14.24l5.308-33.19c1.75 4.897 6.698 7.935 11.908 7.317 11.76 0 19.548-7.808 22.426-26.122l5.408-33.533c2.532-15.76-1.685-23.469-12.999-23.469m-1.439 24.549l-4.962 32.7c-1.339 8.248-4.216 13.207-10.618 13.207-7.243 0-7.54-7.12-6.152-15.81l4.368-27.346c1.588-9.82 4.961-14.73 11.708-14.73 4.665.098 6.998 3.631 5.656 11.979"/>
  </g>
</svg>
