<?xml version="1.0" encoding="utf-8"?>
<svg version="1.1" id="Layer_1" xmlns="http://www.w3.org/2000/svg" x="0" y="0" viewBox="0 0 570.4 242" xml:space="preserve">
  <style>
    .st0{fill:#21201d}
  </style>
  <path class="st0" d="M318 30.4c-10.2-8.7-23.5-14-38-14-32.4 0-58.6 26.2-58.6 58.6 0 14.5 5.3 27.8 14 38L318 30.4zM241.6 119.3c10.3 8.9 23.7 14.3 38.4 14.3 32.4 0 58.6-26.2 58.6-58.6 0-14.7-5.4-28.1-14.3-38.4l-82.7 82.7z"/>
  <g>
    <path d="M45.6 180.6c0-1.8-.3-3.3-1-4.6-.7-1.3-1.6-2.5-2.8-3.3-1.2-.9-2.6-1.5-4.1-2-1.5-.5-3.2-.7-4.9-.7-1.5 0-2.9.2-4.3.6-1.3.4-2.5.9-3.6 1.7-1.1.7-1.9 1.6-2.5 2.7-.6 1.1-.9 2.3-.9 3.7v.5c0 1.5.3 2.8.9 3.8.6 1.1 1.5 2 2.7 2.7 1.2.7 2.7 1.4 4.5 1.9 1.8.5 3.9.9 6.4 1.3 5.7.9 9.9 2.5 12.5 5 2.7 2.5 4 5.7 4 9.9v.9c0 2.3-.4 4.5-1.2 6.4-.8 1.9-2 3.6-3.6 5s-3.5 2.5-5.8 3.3c-2.3.8-5 1.2-8.1 1.2-3.5 0-6.5-.5-9.2-1.5-2.7-1-4.9-2.4-6.7-4.2-1.8-1.8-3.1-3.9-4.1-6.3-.9-2.4-1.4-5-1.4-7.9v-2.3h6.5v1.9c0 4.8 1.3 8.3 3.9 10.7 2.6 2.4 6.2 3.6 10.9 3.6 4 0 7.1-.9 9.1-2.7 2-1.8 3.1-4.1 3.1-7.1v-.8c0-2.8-1-5-3.1-6.5s-5.5-2.6-10.2-3.3c-2.7-.4-5.2-.9-7.4-1.7-2.2-.7-4.1-1.7-5.6-2.9s-2.7-2.7-3.6-4.4c-.8-1.7-1.2-3.7-1.2-6v-.9c0-2.1.4-4.1 1.3-5.8.9-1.8 2.1-3.3 3.7-4.6 1.6-1.3 3.5-2.3 5.7-3 2.2-.7 4.6-1 7.2-1 3 0 5.8.4 8.2 1.3 2.4.9 4.4 2.1 6.1 3.5 1.7 1.5 2.9 3.2 3.8 5.2.9 2 1.3 4.1 1.3 6.2v3.3h-6.5v-2.8zM63 165h34.4v6H83.5v42.1h13.9v6H63v-6h14V171H63v-6zM109.6 165h17.8c6.7 0 11.6 1.6 14.7 4.8 3.1 3.2 4.6 8.3 4.6 15.3V199c0 7-1.5 12.1-4.6 15.3-3.1 3.2-8 4.8-14.7 4.8h-17.8V213h4.6v-42h-4.6v-6zm16.9 48.2c2.4 0 4.4-.2 6.2-.7 1.7-.5 3.2-1.3 4.3-2.4 1.1-1.1 2-2.6 2.5-4.5s.8-4.2.8-7v-13c0-2.8-.3-5.2-.8-7-.5-1.9-1.4-3.3-2.5-4.5-1.1-1.1-2.6-1.9-4.3-2.4-1.7-.5-3.8-.7-6.2-.7h-5.7v42.1h5.7zM158.6 165h32.8v6h-26.3v18H191v6h-25.9v18.1h26.8v6h-33.3V165zM235.2 180.6c0-1.8-.3-3.3-1-4.6-.7-1.3-1.6-2.5-2.8-3.3-1.2-.9-2.6-1.5-4.1-2-1.5-.5-3.2-.7-4.9-.7-1.5 0-2.9.2-4.3.6-1.3.4-2.5.9-3.6 1.7-1.1.7-1.9 1.6-2.5 2.7-.6 1.1-.9 2.3-.9 3.7v.5c0 1.5.3 2.8.9 3.8.6 1.1 1.5 2 2.7 2.7 1.2.7 2.7 1.4 4.5 1.9 1.8.5 3.9.9 6.4 1.3 5.7.9 9.9 2.5 12.5 5 2.7 2.5 4 5.7 4 9.9v.9c0 2.3-.4 4.5-1.2 6.4s-2 3.6-3.6 5-3.5 2.5-5.8 3.3c-2.3.8-5 1.2-8.1 1.2-3.5 0-6.5-.5-9.2-1.5-2.7-1-4.9-2.4-6.7-4.2-1.8-1.8-3.1-3.9-4.1-6.3-.9-2.4-1.4-5-1.4-7.9v-2.3h6.5v1.9c0 4.8 1.3 8.3 3.9 10.7 2.6 2.4 6.2 3.6 10.9 3.6 4 0 7.1-.9 9.1-2.7 2-1.8 3.1-4.1 3.1-7.1v-.8c0-2.8-1-5-3.1-6.5s-5.5-2.6-10.2-3.3c-2.7-.4-5.2-.9-7.4-1.7-2.2-.7-4.1-1.7-5.6-2.9s-2.7-2.7-3.6-4.4c-.8-1.7-1.2-3.7-1.2-6v-.9c0-2.1.4-4.1 1.3-5.8.9-1.8 2.1-3.3 3.7-4.6 1.6-1.3 3.5-2.3 5.7-3 2.2-.7 4.6-1 7.2-1 3 0 5.8.4 8.2 1.3 2.4.9 4.4 2.1 6.1 3.5 1.7 1.5 2.9 3.2 3.8 5.2.9 2 1.3 4.1 1.3 6.2v3.3h-6.5v-2.8zM251.8 165h6.5v24h23.1v-24h6.5v54.2h-6.5V195h-23.1v24.2h-6.5V165zM300 165h34.4v6h-13.9v42.1h13.9v6H300v-6h13.9V171H300v-6zM348.3 165h33.3v6h-26.8v18h26.3v6h-26.3v24.2h-6.5V165zM392.9 165H431v6h-15.8v48.2h-6.5V171h-15.8v-6zM443.6 214.9c0-1.5.5-2.8 1.6-3.8 1.1-1.1 2.3-1.6 3.8-1.6s2.8.5 3.8 1.6c1.1 1.1 1.6 2.3 1.6 3.8s-.5 2.8-1.6 3.8c-1.1 1.1-2.3 1.6-3.8 1.6s-2.8-.5-3.8-1.6-1.6-2.3-1.6-3.8zM502.9 205.7h-23.2l-3.9 13.5h-7l16.4-54.2h12.2l16.4 54.2h-7l-3.9-13.5zm-12.1-37.9l-9.4 31.9h19.7l-9.4-31.9h-.9zM521.5 165h34.4v6H542v42.1h13.9v6h-34.4v-6h13.9V171h-13.9v-6z"/>
  </g>
</svg>
